#N canvas 763 109 934 498 12;
#X declare -lib iemlib -path iemlib -lib zexy;
#X declare -path Fraise -path AutoPreset -path stuff;
#N canvas 800 209 681 708 bruits_feu 0;
#X obj 324 70 noise~;
#X obj 82 576 dac~;
#X obj 318 180 hsl 170 20 0 1 0 0 empty empty empty -2 -10 0 12 #fcfcfc #000000 #000000 0 1;
#X obj 315 205 pow 2;
#X floatatom 369 79 5 0 0 0 - - - 0;
#X obj 83 426 hip~ 20;
#X obj 324 101 lp4_butt~ 150;
#X obj 325 126 *~ 2;
#X obj 23 6 declare -lib iemlib -path iemlib -lib zexy;
#X obj 180 514 z~ 64;
#X obj 80 538 *~;
#X obj 81 486 +~;
#X msg 315 255 \$1 10;
#X obj 315 280 line~;
#X obj 81 210 *~;
#X obj 80 513 limiter~ 50;
#N canvas 1129 195 710 623 noise1 0;
#X obj 49 378 noise~;
#X obj 48 426 bob~ 200 3;
#X obj 76 24 noise~;
#X obj 80 295 *~ 30;
#X obj 81 321 +~ 30;
#X obj 80 348 mtof~;
#X obj 79 266 *~ 10;
#X floatatom 141 33 5 0 0 0 - - - 0;
#X obj 130 425 sig~ 2;
#X obj 80 203 slop~ 1 0.008 0.01 0.08, f 38;
#X text 247 67 cutoff frequency in linear region;
#X text 280 88 maximum downward slew of linear region;
#X text 324 116 asymptotic downward cutoff frequency (for downward slews greater than maximum), f 41;
#X text 355 148 maximum upward slew of linear region;
#X text 414 171 asymptotic upward cutoff frequency (for upward slews greater than maximum), f 41;
#X obj 78 95 abs~;
#X obj 183 68 nbx 5 18 -1e+37 1e+37 0 1 empty empty empty 0 -10 0 12 #fcfcfc #000000 #000000 0 256;
#X obj 210 92 nbx 5 18 -1e+37 1e+37 0 1 empty empty empty 0 -10 0 12 #fcfcfc #000000 #000000 0 256;
#X obj 255 124 nbx 5 18 -1e+37 1e+37 0 1 empty empty empty 0 -10 0 12 #fcfcfc #000000 #000000 5 256;
#X obj 290 152 nbx 5 18 -1e+37 1e+37 0 1 empty empty empty 0 -10 0 12 #fcfcfc #000000 #000000 0 256;
#X obj 345 177 nbx 5 18 -1e+37 1e+37 0 1 empty empty empty 0 -10 0 12 #fcfcfc #000000 #000000 2 256;
#X obj 141 265 nbx 5 18 -1e+37 1e+37 0 1 empty empty empty 0 -10 0 12 #fcfcfc #000000 #000000 57 256;
#X obj 136 300 nbx 5 18 -1e+37 1e+37 0 1 empty empty empty 0 -10 0 12 #fcfcfc #000000 #000000 72 256;
#X obj 185 177 / 44100;
#X obj 290 176 / 44100;
#X obj 78 63 lop~ 4;
#X obj 48 451 outlet~;
#X obj 132 398 nbx 5 18 -1e+37 1e+37 0 1 empty empty empty 0 -10 0 12 #fcfcfc #000000 #000000 1.02 256;
#X connect 0 0 1 0;
#X connect 1 0 26 0;
#X connect 2 0 25 0;
#X connect 3 0 4 0;
#X connect 4 0 5 0;
#X connect 5 0 1 1;
#X connect 6 0 3 0;
#X connect 7 0 25 1;
#X connect 8 0 1 2;
#X connect 9 0 6 0;
#X connect 15 0 9 0;
#X connect 16 0 9 1;
#X connect 17 0 23 0;
#X connect 18 0 9 3;
#X connect 19 0 24 0;
#X connect 20 0 9 5;
#X connect 21 0 3 1;
#X connect 22 0 4 1;
#X connect 23 0 9 2;
#X connect 24 0 9 4;
#X connect 25 0 15 0;
#X connect 27 0 8 0;
#X restore 80 73 pd noise1;
#N canvas 1126 192 710 623 noise1 0;
#X obj 49 378 noise~;
#X obj 48 426 bob~ 200 3;
#X obj 76 24 noise~;
#X obj 80 295 *~ 30;
#X obj 81 321 +~ 30;
#X obj 80 348 mtof~;
#X obj 79 266 *~ 10;
#X floatatom 141 33 5 0 0 0 - - - 0;
#X obj 80 203 slop~ 1 0.008 0.01 0.08, f 38;
#X text 247 67 cutoff frequency in linear region;
#X text 280 88 maximum downward slew of linear region;
#X text 324 116 asymptotic downward cutoff frequency (for downward slews greater than maximum), f 41;
#X text 355 148 maximum upward slew of linear region;
#X text 414 171 asymptotic upward cutoff frequency (for upward slews greater than maximum), f 41;
#X obj 78 95 abs~;
#X obj 183 68 nbx 5 18 -1e+37 1e+37 0 1 empty empty empty 0 -10 0 12 #fcfcfc #000000 #000000 8 256;
#X obj 210 92 nbx 5 18 -1e+37 1e+37 0 1 empty empty empty 0 -10 0 12 #fcfcfc #000000 #000000 878 256;
#X obj 255 124 nbx 5 18 -1e+37 1e+37 0 1 empty empty empty 0 -10 0 12 #fcfcfc #000000 #000000 67 256;
#X obj 290 152 nbx 5 18 -1e+37 1e+37 0 1 empty empty empty 0 -10 0 12 #fcfcfc #000000 #000000 2732 256;
#X obj 345 177 nbx 5 18 -1e+37 1e+37 0 1 empty empty empty 0 -10 0 12 #fcfcfc #000000 #000000 76 256;
#X obj 141 265 nbx 5 18 -1e+37 1e+37 0 1 empty empty empty 0 -10 0 12 #fcfcfc #000000 #000000 85 256;
#X obj 136 300 nbx 5 18 -1e+37 1e+37 0 1 empty empty empty 0 -10 0 12 #fcfcfc #000000 #000000 62 256;
#X obj 185 177 / 44100;
#X obj 290 176 / 44100;
#X obj 48 451 outlet~;
#X obj 78 63 lop~ 6;
#X obj 130 425 sig~ 1;
#X connect 0 0 1 0;
#X connect 1 0 24 0;
#X connect 2 0 25 0;
#X connect 3 0 4 0;
#X connect 4 0 5 0;
#X connect 5 0 1 1;
#X connect 6 0 3 0;
#X connect 7 0 25 1;
#X connect 8 0 6 0;
#X connect 14 0 8 0;
#X connect 15 0 8 1;
#X connect 16 0 22 0;
#X connect 17 0 8 3;
#X connect 18 0 23 0;
#X connect 19 0 8 5;
#X connect 20 0 3 1;
#X connect 21 0 4 1;
#X connect 22 0 8 2;
#X connect 23 0 8 4;
#X connect 25 0 14 0;
#X connect 26 0 1 2;
#X restore 159 71 pd noise1;
#N canvas 1107 227 710 623 noise1 0;
#X obj 49 378 noise~;
#X obj 48 426 bob~ 200 3;
#X obj 76 24 noise~;
#X obj 80 295 *~ 30;
#X obj 81 321 +~ 30;
#X obj 80 348 mtof~;
#X obj 79 266 *~ 10;
#X floatatom 141 33 5 0 0 0 - - - 0;
#X obj 80 203 slop~ 1 0.008 0.01 0.08, f 38;
#X text 247 67 cutoff frequency in linear region;
#X text 280 88 maximum downward slew of linear region;
#X text 324 116 asymptotic downward cutoff frequency (for downward slews greater than maximum), f 41;
#X text 355 148 maximum upward slew of linear region;
#X text 414 171 asymptotic upward cutoff frequency (for upward slews greater than maximum), f 41;
#X obj 78 95 abs~;
#X obj 183 68 nbx 5 18 -1e+37 1e+37 0 1 empty empty empty 0 -10 0 12 #fcfcfc #000000 #000000 2 256;
#X obj 210 92 nbx 5 18 -1e+37 1e+37 0 1 empty empty empty 0 -10 0 12 #fcfcfc #000000 #000000 131 256;
#X obj 255 124 nbx 5 18 -1e+37 1e+37 0 1 empty empty empty 0 -10 0 12 #fcfcfc #000000 #000000 3 256;
#X obj 290 152 nbx 5 18 -1e+37 1e+37 0 1 empty empty empty 0 -10 0 12 #fcfcfc #000000 #000000 332 256;
#X obj 345 177 nbx 5 18 -1e+37 1e+37 0 1 empty empty empty 0 -10 0 12 #fcfcfc #000000 #000000 5 256;
#X obj 141 265 nbx 5 18 -1e+37 1e+37 0 1 empty empty empty 0 -10 0 12 #fcfcfc #000000 #000000 148 256;
#X obj 136 300 nbx 5 18 -1e+37 1e+37 0 1 empty empty empty 0 -10 0 12 #fcfcfc #000000 #000000 54 256;
#X obj 185 177 / 44100;
#X obj 290 176 / 44100;
#X obj 78 63 lop~ 4;
#X obj 48 451 outlet~;
#X obj 130 425 sig~ 1.5;
#X connect 0 0 1 0;
#X connect 1 0 25 0;
#X connect 2 0 24 0;
#X connect 3 0 4 0;
#X connect 4 0 5 0;
#X connect 5 0 1 1;
#X connect 6 0 3 0;
#X connect 7 0 24 1;
#X connect 8 0 6 0;
#X connect 14 0 8 0;
#X connect 15 0 8 1;
#X connect 16 0 22 0;
#X connect 17 0 8 3;
#X connect 18 0 23 0;
#X connect 19 0 8 5;
#X connect 20 0 3 1;
#X connect 21 0 4 1;
#X connect 22 0 8 2;
#X connect 23 0 8 4;
#X connect 24 0 14 0;
#X connect 26 0 1 2;
#X restore 236 72 pd noise1;
#X floatatom 171 329 5 0 0 0 - - - 0;
#X floatatom 215 331 5 0 0 0 - - - 0;
#X floatatom 268 333 5 0 0 0 - - - 0;
#X obj 118 366 rev3~ 105 80 4500 50;
#X obj 105 278 delwrite~ \$0-necho 1000;
#X obj 104 254 hip~ 200;
#X obj 110 304 delread~ \$0-necho 100;
#X obj 267 457 env~;
#X floatatom 267 482 5 0 0 0 - - - 0;
#X obj 425 280 hp6_butt~ 3000;
#X obj 234 614 hsl 170 20 0 70 0 0 empty empty empty -2 -10 0 12 #fcfcfc #000000 #000000 0 1;
#X floatatom 501 333 5 0 50 0 - \$0-decay-speed-init - 0;
#X obj 423 384 abs~;
#X obj 423 414 slop~ 0 0 0 0 1e+09;
#X obj 501 357 expr 1000 / $f1;
#X text 481 333 ms;
#X text 499 310 decay speed;
#X floatatom 501 383 5 0 0 0 - - - 0;
#X text 481 384 hz;
#X obj 423 443 env~;
#X floatatom 423 468 5 0 0 0 - - - 0;
#X obj 396 516 hsl 170 20 0 70 0 0 empty empty empty -2 -10 0 12 #fcfcfc #000000 #000000 0 1;
#X obj 467 626 hsl 170 20 0 1 0 0 empty empty empty -2 -10 0 12 #fcfcfc #000000 #000000 0 1;
#X obj 465 658 s testlamp;
#X obj 367 575 clip 0 1;
#X obj 281 551 maxlib/scale 0 40 0 1;
#X obj 415 601 change;
#X obj 398 141 r volume-feu;
#X obj 482 53 r tunnel-volume_feu-snd;
#X obj 315 230 * 5;
#X obj 58 639 throw~ out1;
#X connect 0 0 6 0;
#X connect 2 0 3 0;
#X connect 3 0 48 0;
#X connect 4 0 6 1;
#X connect 5 0 49 0;
#X connect 6 0 7 0;
#X connect 7 0 14 0;
#X connect 9 0 10 1;
#X connect 10 0 1 0;
#X connect 11 0 9 0;
#X connect 11 0 15 0;
#X connect 12 0 13 0;
#X connect 13 0 14 1;
#X connect 14 0 5 0;
#X connect 14 0 24 0;
#X connect 14 0 28 0;
#X connect 15 0 10 0;
#X connect 16 0 14 0;
#X connect 17 0 14 0;
#X connect 18 0 14 0;
#X connect 19 0 22 2;
#X connect 20 0 22 3;
#X connect 21 0 22 5;
#X connect 22 0 5 0;
#X connect 24 0 23 0;
#X connect 25 0 22 0;
#X connect 26 0 27 0;
#X connect 26 0 29 0;
#X connect 26 0 44 0;
#X connect 28 0 26 0;
#X connect 28 0 31 0;
#X connect 30 0 33 0;
#X connect 31 0 32 0;
#X connect 32 0 38 0;
#X connect 33 0 36 0;
#X connect 36 0 32 3;
#X connect 38 0 39 0;
#X connect 38 0 40 0;
#X connect 41 0 42 0;
#X connect 43 0 45 0;
#X connect 44 0 43 0;
#X connect 47 0 2 0;
#X connect 48 0 12 0;
#X restore 308 46 pd bruits_feu;
#N canvas 87 120 870 597 synopsis 0;
#X text 179 83 pied;
#X text 254 52 gradachose;
#X text 251 150 pixels1(versa+sp201);
#X text 251 251 pixels2(pico);
#X text 253 169 alim 12V ou 24V;
#X text 250 270 alim 12V;
#X text 337 31 4 boutons;
#X text 338 74 10 gradas;
#X text 426 75 4 ventilos;
#X text 417 255 10 ou 12 petites dalles LED;
#X text 423 165 pars led;
#X text 181 455 XR18;
#X text 44 259 ordi;
#X text 239 446 1-2 HK tunnel;
#X text 238 476 3-4 HK ventilos;
#X text 241 511 5-6 Cheval;
#X restore 433 49 pd synopsis;
#N canvas 398 62 549 579 lamps 0;
#X text 38 24 18 rampes;
#X text 39 53 10 parDMX;
#X text 40 85 8 parPixels;
#X text 97 194 "grille" : 8 parpixel + 2 parDMX + 4 rampes + 1 ventilo;
#X text 105 254 2 souffleries : 4 parDMX + 1 HK + 2 HP (gros);
#X text 101 226 tunnel : 10 rampes + ventilos ? + 2 HK;
#X text 106 285 cheval : 2 parDMX + 1 HK;
#X restore 525 49 pd lamps;
#X obj 11 39 pied/pied 1;
#X obj 11 122 fruit/fruit 1 dmxseq 0 fw_dmxseq;
#N canvas 0 0 851 563 tests 0;
#X obj 260 274 fruit/send2 dmxseq;
#X obj 310 75 fruit/receive dmxseq;
#X msg 383 244 L;
#X obj 383 217 metro 500;
#X obj 383 189 tgl 20 0 empty empty empty 0 -10 0 12 #fcfcfc #000000 #000000 0 1;
#X obj 310 100 route L;
#X floatatom 310 125 5 0 0 0 - - - 0;
#X obj 383 166 loadbang;
#X obj 74 184 hsl 170 20 0 255 0 0 empty empty empty -2 -10 0 12 #fcfcfc #000000 #000000 0 1;
#X obj 74 357 hsl 170 20 0 10000 0 0 empty empty empty -2 -10 0 12 #fcfcfc #000000 #000000 0 1;
#X obj 380 126 print;
#X floatatom 57 417 5 0 0 0 - - - 0;
#X obj 568 118 table \$0-test 1000;
#X obj 554 265 list prepend 2;
#X msg 554 211 0;
#X obj 545 144 tgl 20 0 empty empty empty 0 -10 0 12 #fcfcfc #000000 #000000 0 1;
#X text 568 305 50kB/s = 25000 channels/s;
#X text 618 327 = 250 chans/10ms;
#X obj 554 240 array get \$0-test 0 50;
#X obj 553 169 metro 2;
#X obj 71 258 pack f 0;
#X msg 71 289 100 \$2 0 \$1;
#X floatatom 351 411 5 0 0 0 - - - 0;
#X msg 71 386 100 59 1 i \$1;
#X floatatom 149 263 5 0 0 0 - - - 0;
#X msg 333 470 100 \$1 0 128;
#N canvas 167 124 489 846 test_feu 0;
#X obj 103 60 metro 10;
#X obj 103 85 t b b, f 17;
#X obj 219 110 random 1000;
#X obj 219 135 / 1000;
#X obj 219 160 -;
#X obj 219 210 +;
#X obj 219 235 f;
#X obj 103 27 tgl 20 0 empty empty empty 0 -10 0 12 #fcfcfc #000000 #000000 0 1;
#X obj 308 448 hsl 170 20 0 255 0 0 empty empty empty -2 -10 0 12 #fcfcfc #000000 #000000 0 1;
#X obj 104 173 +;
#X obj 104 198 moses;
#X obj 135 223 t b b;
#X msg 136 246 0;
#X obj 174 279 random 1000;
#X obj 147 371 random 1000;
#X obj 138 419 / 1000;
#X obj 104 261 f;
#X obj 137 483 hsl 170 20 0 1 0 0 empty empty empty -2 -10 0 12 #fcfcfc #000000 #000000 0 1;
#X obj 104 148 f 0.1;
#X obj 142 395 + 1;
#X msg 155 140 0.1;
#X floatatom 18 214 5 0 0 0 - - - 0;
#X obj 93 557 unpack f f;
#X obj 93 582 * 255;
#X obj 160 581 * 255;
#X obj 93 631 pack f f, f 10;
#X msg 93 674 29 \$1 \, 30 \$2;
#X obj 62 762 outlet;
#X listbox 144 751 20 0 0 0 - - - 0;
#X msg 257 616 \$1 \$1;
#X floatatom 264 577 5 0 255 0 - - - 0;
#X msg 47 719 100 \$1 0 \$2;
#X obj 174 328 + 0.01;
#X obj 267 398 clip 0 255;
#X obj 46 318 -;
#X obj 46 368 +;
#X obj 46 393 f;
#X obj 46 342 * 0.2;
#X obj 227 542 hsl 170 20 0 1 0 0 empty empty empty -2 -10 0 12 #fcfcfc #000000 #000000 0 1;
#X floatatom 292 318 5 0 0 0 - - - 0;
#X obj 174 303 / 30000;
#X obj 271 159 -;
#X obj 271 209 +;
#X obj 271 234 f;
#X obj 219 186 * 0.3;
#X obj 271 185 * 0.3;
#X obj 267 372 * 300;
#X msg 207 667 29 \$1 \, 30 \$2;
#X obj 160 606 * 0.95;
#X obj 18 430 t f f;
#X obj 18 519 pack f f;
#X obj 115 523 list prepend 1;
#X obj 94 396 + 0.5;
#X obj 13 489 clip 0.7 1;
#X msg 315 707 0 0;
#X connect 0 0 1 0;
#X connect 1 0 18 0;
#X connect 1 1 2 0;
#X connect 2 0 3 0;
#X connect 3 0 4 0;
#X connect 4 0 44 0;
#X connect 5 0 6 0;
#X connect 6 0 5 1;
#X connect 6 0 4 1;
#X connect 6 0 41 0;
#X connect 7 0 0 0;
#X connect 9 0 10 0;
#X connect 10 0 16 0;
#X connect 10 1 11 0;
#X connect 11 0 12 0;
#X connect 11 1 13 0;
#X connect 11 1 14 0;
#X connect 12 0 16 0;
#X connect 13 0 40 0;
#X connect 14 0 19 0;
#X connect 15 0 10 1;
#X connect 16 0 17 0;
#X connect 16 0 9 1;
#X connect 16 0 34 0;
#X connect 18 0 9 0;
#X connect 18 0 21 0;
#X connect 19 0 15 0;
#X connect 20 0 18 1;
#X connect 22 0 23 0;
#X connect 22 1 24 0;
#X connect 23 0 25 0;
#X connect 24 0 48 0;
#X connect 25 0 26 0;
#X connect 26 0 31 0;
#X connect 29 0 26 0;
#X connect 30 0 29 0;
#X connect 31 0 27 0;
#X connect 32 0 18 1;
#X connect 32 0 39 0;
#X connect 33 0 23 1;
#X connect 33 0 24 1;
#X connect 33 0 8 0;
#X connect 34 0 37 0;
#X connect 35 0 36 0;
#X connect 36 0 35 1;
#X connect 36 0 34 1;
#X connect 36 0 38 0;
#X connect 36 0 49 0;
#X connect 37 0 35 0;
#X connect 40 0 32 0;
#X connect 41 0 45 0;
#X connect 42 0 43 0;
#X connect 43 0 42 1;
#X connect 43 0 41 1;
#X connect 43 0 46 0;
#X connect 44 0 5 0;
#X connect 45 0 42 0;
#X connect 46 0 33 0;
#X connect 48 0 25 1;
#X connect 49 0 53 0;
#X connect 49 1 50 1;
#X connect 50 0 22 0;
#X connect 52 0 53 0;
#X connect 53 0 50 0;
#X connect 54 0 26 0;
#X restore 502 418 pd test_feu;
#X msg 149 239 29;
#X msg 185 240 30;
#X msg 219 240 31;
#X msg 256 242 32;
#X msg 511 59 100 \$1 200;
#X floatatom 520 26 5 0 0 0 - - - 0;
#X msg 216 495 100 7 0 \$1;
#X floatatom 265 451 5 0 255 0 - - - 0;
#X obj 270 423 bng 20 250 50 0 empty empty empty 0 -10 0 12 #fcfcfc #000000 #000000;
#X msg 115 531 100 7 100;
#N canvas 119 74 1176 880 fireLamp 0;
#X obj 66 26 inlet;
#X obj 39 401 outlet;
#X obj 39 279 list prepend 100 7;
#X floatatom 39 130 5 0 255 2 intensity - - 0;
#X obj 144 215 pack f f f f, f 20;
#X floatatom 133 119 5 0 255 2 speedUp - - 0;
#X obj 155 169 t b f;
#X obj 198 168 t b f;
#X obj 257 172 t b f;
#X floatatom 188 119 5 0 255 2 speedDown - - 0;
#X floatatom 259 120 5 0 255 2 speedIntens - - 0;
#X floatatom 344 119 5 0 255 2 minRed - - 0;
#X obj 144 240 list prepend 1;
#X floatatom 417 121 5 0 255 2 r - - 0;
#X obj 439 171 t b f;
#X obj 482 170 t b f;
#X obj 541 174 t b f;
#X floatatom 472 121 5 0 255 2 g - - 0;
#X floatatom 515 121 5 0 255 2 b - - 0;
#X floatatom 562 121 5 0 255 2 w - - 0;
#X obj 428 241 list prepend 2 1;
#X msg 600 247 2 0;
#X obj 157 55 unpack f f f f;
#X msg 164 24 80 200 100 130;
#X obj 428 217 pack f f f f f, f 20;
#X obj 597 174 t b f;
#X floatatom 618 121 5 0 255 2 speed - - 0;
#X obj 437 61 bng 20 250 50 0 empty empty empty 0 -10 0 12 #fcfcfc #000000 #000000;
#X obj 790 47 t b b;
#X msg 790 72 30;
#X obj 790 97 until;
#X obj 790 122 f;
#X obj 830 123 + 1;
#X msg 840 98 0;
#X obj 790 19 bng 20 250 50 0 empty empty empty 0 -10 0 12 #fcfcfc #000000 #000000;
#X obj 790 149 pack f 0;
#X obj 890 126 tgl 20 0 empty empty empty 0 -10 0 12 #fcfcfc #000000 #000000 0 1;
#X msg 790 175 100 \$1 2 \$2 0 0 0 0;
#X floatatom 314 344 5 0 255 2 intensity - - 0;
#X msg 314 370 0 \$1;
#X obj 313 397 list prepend 100 8;
#X floatatom 58 201 5 0 255 2 const_intensity - - 0;
#X msg 58 227 0 \$1 \$1;
#X msg 40 157 0 \$1 20;
#X floatatom 653 349 5 0 255 2 speedUp - - 0;
#X obj 675 399 t b f;
#X obj 718 398 t b f;
#X obj 765 397 t b f;
#X floatatom 708 349 5 0 255 2 speedDown - - 0;
#X floatatom 1088 345 5 0 255 2 speedIntens - - 0;
#X obj 664 470 list prepend 1;
#X obj 492 534 vsl 15 120 0 255 0 0 empty empty empty 0 -9 0 12 #ff0400 #000000 #000000 0 1;
#X obj 511 534 vsl 15 120 0 255 0 0 empty empty empty 0 -9 0 12 #00ff04 #000000 #000000 0 1;
#X obj 530 534 vsl 15 120 0 255 0 0 empty empty empty 0 -9 0 12 #0400ff #000000 #000000 0 1;
#X obj 549 534 vsl 15 120 0 255 0 0 empty empty empty 0 -9 0 12 #ffffff #000000 #000000 0 1;
#N canvas 735 420 450 300 col 0;
#X obj 49 39 inlet;
#X obj 101 39 inlet;
#X obj 150 38 inlet;
#X obj 202 38 inlet;
#X obj 49 124 t b f, f 6;
#X obj 49 194 f, f 6;
#X obj 49 219 pack f f f f, f 32;
#X obj 101 123 t b f;
#X obj 150 123 t b f;
#X obj 202 122 t b f;
#X obj 49 169 del 1;
#X obj 49 244 outlet;
#X obj 49 64 i;
#X obj 49 89 change;
#X obj 101 64 i;
#X obj 101 89 change;
#X obj 150 65 i;
#X obj 150 90 change;
#X obj 202 65 i;
#X obj 202 90 change;
#X connect 0 0 12 0;
#X connect 1 0 14 0;
#X connect 2 0 16 0;
#X connect 3 0 18 0;
#X connect 4 0 10 0;
#X connect 4 1 5 1;
#X connect 5 0 6 0;
#X connect 6 0 11 0;
#X connect 7 0 10 0;
#X connect 7 1 6 1;
#X connect 8 0 10 0;
#X connect 8 1 6 2;
#X connect 9 0 10 0;
#X connect 9 1 6 3;
#X connect 10 0 5 0;
#X connect 12 0 13 0;
#X connect 13 0 4 0;
#X connect 14 0 15 0;
#X connect 15 0 7 0;
#X connect 16 0 17 0;
#X connect 17 0 8 0;
#X connect 18 0 19 0;
#X connect 19 0 9 0;
#X restore 492 665 pd col;
#X f 9;
#X obj 492 748 list append;
#X listbox 601 798 52 0 0 0 - - - 0;
#X obj 586 689 t b a;
#X obj 492 719 list;
#X obj 492 692 t b a;
#X obj 586 532 vsl 15 120 0 255 0 0 empty empty empty 0 -9 0 12 #ff0400 #000000 #000000 0 1;
#X obj 605 532 vsl 15 120 0 255 0 0 empty empty empty 0 -9 0 12 #00ff04 #000000 #000000 0 1;
#X obj 624 532 vsl 15 120 0 255 0 0 empty empty empty 0 -9 0 12 #0400ff #000000 #000000 0 1;
#X obj 643 532 vsl 15 120 0 255 0 0 empty empty empty 0 -9 0 12 #ffffff #000000 #000000 0 1;
#N canvas 735 420 450 300 col 0;
#X obj 49 39 inlet;
#X obj 101 39 inlet;
#X obj 150 38 inlet;
#X obj 202 38 inlet;
#X obj 49 124 t b f, f 6;
#X obj 49 194 f, f 6;
#X obj 49 219 pack f f f f, f 32;
#X obj 101 123 t b f;
#X obj 150 123 t b f;
#X obj 202 122 t b f;
#X obj 49 169 del 1;
#X obj 49 244 outlet;
#X obj 49 64 i;
#X obj 49 89 change;
#X obj 101 64 i;
#X obj 101 89 change;
#X obj 150 65 i;
#X obj 150 90 change;
#X obj 202 65 i;
#X obj 202 90 change;
#X connect 0 0 12 0;
#X connect 1 0 14 0;
#X connect 2 0 16 0;
#X connect 3 0 18 0;
#X connect 4 0 10 0;
#X connect 4 1 5 1;
#X connect 5 0 6 0;
#X connect 6 0 11 0;
#X connect 7 0 10 0;
#X connect 7 1 6 1;
#X connect 8 0 10 0;
#X connect 8 1 6 2;
#X connect 9 0 10 0;
#X connect 9 1 6 3;
#X connect 10 0 5 0;
#X connect 12 0 13 0;
#X connect 13 0 4 0;
#X connect 14 0 15 0;
#X connect 15 0 7 0;
#X connect 16 0 17 0;
#X connect 17 0 8 0;
#X connect 18 0 19 0;
#X connect 19 0 9 0;
#X restore 586 663 pd col;
#X f 9;
#X obj 492 773 list prepend 2;
#X floatatom 438 338 5 0 255 2 intensity - - 0;
#X msg 438 364 0 \$1 \$1;
#X text 199 487 flash + rnd_delay(x10ms) + duration(x10ms);
#X msg 185 511 10 0 0;
#X msg 265 522 10 50 100;
#X obj 813 399 t b f;
#X obj 860 398 t b f;
#X floatatom 776 349 5 0 255 2 countLow - - 0;
#X floatatom 841 348 5 0 255 2 countHigh - - 0;
#X floatatom 913 347 5 0 100 2 colRandom - - 0;
#X obj 701 266 unpack f f f f f f;
#X msg 714 220 80 200 0 0 60 80;
#X obj 664 445 pack f f f f f f f, f 20;
#X obj 908 396 t b f;
#X floatatom 983 346 5 0 100 2 colSmooth - - 0;
#X connect 2 0 1 0;
#X connect 3 0 43 0;
#X connect 4 0 12 0;
#X connect 5 0 4 0;
#X connect 6 0 4 0;
#X connect 6 1 4 1;
#X connect 7 0 4 0;
#X connect 7 1 4 2;
#X connect 8 0 4 0;
#X connect 8 1 4 3;
#X connect 9 0 6 0;
#X connect 10 0 7 0;
#X connect 11 0 8 0;
#X connect 12 0 2 0;
#X connect 13 0 24 0;
#X connect 14 0 24 0;
#X connect 14 1 24 1;
#X connect 15 0 24 0;
#X connect 15 1 24 2;
#X connect 16 0 24 0;
#X connect 16 1 24 3;
#X connect 17 0 14 0;
#X connect 18 0 15 0;
#X connect 19 0 16 0;
#X connect 20 0 2 0;
#X connect 21 0 2 0;
#X connect 22 0 5 0;
#X connect 22 1 9 0;
#X connect 22 2 10 0;
#X connect 22 3 11 0;
#X connect 23 0 22 0;
#X connect 24 0 20 0;
#X connect 25 0 24 0;
#X connect 25 1 24 4;
#X connect 26 0 25 0;
#X connect 27 0 24 0;
#X connect 28 0 29 0;
#X connect 28 1 33 0;
#X connect 29 0 30 0;
#X connect 30 0 31 0;
#X connect 31 0 32 0;
#X connect 31 0 35 0;
#X connect 32 0 31 1;
#X connect 33 0 31 1;
#X connect 34 0 28 0;
#X connect 35 0 37 0;
#X connect 36 0 35 1;
#X connect 37 0 1 0;
#X connect 38 0 39 0;
#X connect 39 0 40 0;
#X connect 40 0 1 0;
#X connect 41 0 42 0;
#X connect 42 0 2 0;
#X connect 43 0 2 0;
#X connect 44 0 79 0;
#X connect 45 0 79 0;
#X connect 45 1 79 1;
#X connect 46 0 79 0;
#X connect 46 1 79 2;
#X connect 47 0 79 0;
#X connect 47 1 79 3;
#X connect 48 0 45 0;
#X connect 49 0 80 0;
#X connect 50 0 40 0;
#X connect 51 0 55 0;
#X connect 52 0 55 1;
#X connect 53 0 55 2;
#X connect 54 0 55 3;
#X connect 55 0 60 0;
#X connect 56 0 66 0;
#X connect 58 0 59 0;
#X connect 58 1 56 1;
#X connect 59 0 56 0;
#X connect 60 0 59 0;
#X connect 60 1 59 1;
#X connect 61 0 65 0;
#X connect 62 0 65 1;
#X connect 63 0 65 2;
#X connect 64 0 65 3;
#X connect 65 0 58 0;
#X connect 66 0 40 0;
#X connect 67 0 68 0;
#X connect 68 0 40 0;
#X connect 70 0 2 0;
#X connect 70 0 40 0;
#X connect 71 0 40 0;
#X connect 72 0 79 0;
#X connect 72 1 79 4;
#X connect 73 0 79 0;
#X connect 73 1 79 5;
#X connect 74 0 46 0;
#X connect 75 0 47 0;
#X connect 76 0 72 0;
#X connect 77 0 44 0;
#X connect 77 1 48 0;
#X connect 77 2 74 0;
#X connect 77 3 75 0;
#X connect 77 4 76 0;
#X connect 77 5 49 0;
#X connect 78 0 77 0;
#X connect 79 0 50 0;
#X connect 80 0 79 0;
#X connect 80 1 79 6;
#X connect 81 0 73 0;
#X restore 391 534 pd fireLamp;
#X obj 492 19 bng 20 250 50 0 empty empty empty 0 -10 0 12 #fcfcfc #000000 #000000;
#N canvas 99 253 1408 361 test_groups 0;
#X obj 79 292 outlet;
#X obj 79 247 list prepend 101 1;
#X msg 81 190 0 7 8;
#X text 106 224 def group;
#X text 298 228 group comm;
#X obj 245 252 list prepend 101 2;
#X floatatom 241 124 5 0 255 2 intensity - - 0;
#X msg 239 160 0 0 \$1 50;
#X text 341 106 flash;
#X msg 343 128 0 10 30;
#X msg 140 193 0 8;
#X obj 435 228 pack f f f f, f 20;
#X floatatom 424 132 5 0 255 2 speedUp - - 0;
#X obj 446 182 t b f;
#X obj 489 181 t b f;
#X obj 548 185 t b f;
#X floatatom 479 132 5 0 255 2 speedDown - - 0;
#X floatatom 550 133 5 0 255 2 speedIntens - - 0;
#X floatatom 635 132 5 0 255 2 minRed - - 0;
#X obj 435 253 list prepend 1;
#X obj 448 68 unpack f f f f;
#X msg 455 37 80 200 100 130;
#X obj 480 316 list prepend 0;
#X floatatom 739 131 5 0 255 2 r - - 0;
#X obj 761 181 t b f;
#X obj 804 180 t b f;
#X obj 863 184 t b f;
#X floatatom 794 131 5 0 255 2 g - - 0;
#X floatatom 837 131 5 0 255 2 b - - 0;
#X floatatom 884 131 5 0 255 2 w - - 0;
#X obj 750 251 list prepend 2 1;
#X msg 922 257 2 0;
#X obj 919 184 t b f;
#X obj 759 71 bng 20 250 50 0 empty empty empty 0 -10 0 12 #fcfcfc #000000 #000000;
#X floatatom 936 131 5 0 0 0 - - - 0;
#X obj 750 227 pack f f f f 20, f 20;
#X obj 124 29 r testlamp;
#X obj 124 54 * 255;
#X listbox 203 315 20 0 0 0 - - - 0;
#X connect 1 0 0 0;
#X connect 1 0 38 0;
#X connect 2 0 1 0;
#X connect 5 0 0 0;
#X connect 6 0 7 0;
#X connect 7 0 5 0;
#X connect 9 0 5 0;
#X connect 10 0 1 0;
#X connect 11 0 19 0;
#X connect 12 0 11 0;
#X connect 13 0 11 0;
#X connect 13 1 11 1;
#X connect 14 0 11 0;
#X connect 14 1 11 2;
#X connect 15 0 11 0;
#X connect 15 1 11 3;
#X connect 16 0 13 0;
#X connect 17 0 14 0;
#X connect 18 0 15 0;
#X connect 19 0 22 0;
#X connect 20 0 12 0;
#X connect 20 1 16 0;
#X connect 20 2 17 0;
#X connect 20 3 18 0;
#X connect 21 0 20 0;
#X connect 22 0 5 0;
#X connect 23 0 35 0;
#X connect 24 0 35 0;
#X connect 24 1 35 1;
#X connect 25 0 35 0;
#X connect 25 1 35 2;
#X connect 26 0 35 0;
#X connect 26 1 35 3;
#X connect 27 0 24 0;
#X connect 28 0 25 0;
#X connect 29 0 26 0;
#X connect 30 0 22 0;
#X connect 31 0 22 0;
#X connect 32 0 35 0;
#X connect 32 1 35 4;
#X connect 33 0 35 0;
#X connect 34 0 32 0;
#X connect 35 0 30 0;
#X connect 36 0 37 0;
#X connect 37 0 6 0;
#X restore 502 475 pd test_groups;
#X text 561 33 get chan;
#X connect 1 0 5 0;
#X connect 2 0 0 1;
#X connect 3 0 2 0;
#X connect 4 0 3 0;
#X connect 5 0 6 0;
#X connect 5 1 10 0;
#X connect 7 0 4 0;
#X connect 8 0 20 0;
#X connect 9 0 23 0;
#X connect 9 0 11 0;
#X connect 13 0 0 0;
#X connect 14 0 18 0;
#X connect 15 0 19 0;
#X connect 18 0 13 0;
#X connect 19 0 14 0;
#X connect 20 0 21 0;
#X connect 21 0 0 0;
#X connect 22 0 25 0;
#X connect 23 0 0 0;
#X connect 24 0 20 1;
#X connect 25 0 0 0;
#X connect 26 0 0 0;
#X connect 27 0 24 0;
#X connect 28 0 24 0;
#X connect 29 0 24 0;
#X connect 30 0 24 0;
#X connect 31 0 0 0;
#X connect 32 0 31 0;
#X connect 33 0 0 0;
#X connect 34 0 33 0;
#X connect 35 0 34 0;
#X connect 36 0 0 0;
#X connect 37 0 0 0;
#X connect 38 0 32 0;
#X connect 39 0 0 0;
#X restore 385 6 pd tests;
#X obj 10 10 declare -path Fraise -path AutoPreset -path stuff;
#X obj 324 143 bng 20 250 50 0 RELOAD_ALL RELOAD_ALL RELOAD_ALL 0 -10 0 12 #ff8300 #000000 #000000;
#X obj 437 100 hsl 170 30 0 1 0 1 main-fadeToScene-time-snd main-fadeToScene-time-rcv fade\ time:\ 0.2s 5 15 0 14 #faff00 #ff0400 #000000 2100 1;
#N canvas 270 235 581 478 stuff 0;
#X obj 26 28 r main-fadeToScene-time-snd;
#X obj 82 115 s main-fadeToScene-time;
#X obj 26 114 / 100;
#X obj 26 139 i;
#X obj 26 192 / 10;
#X obj 26 166 change;
#X obj 26 242 s main-fadeToScene-time-rcv;
#X msg 26 216 label fade\\\ time:\\\ \$1s;
#X obj 26 88 * 10000;
#X obj 26 61 pow 1.7;
#X obj 290 113 r main-master-snd;
#X obj 290 138 * 100;
#X obj 290 163 i;
#X obj 290 188 change;
#X msg 290 213 label master:\$1%;
#X obj 290 238 s main-master-rcv;
#X obj 336 139 s main-master;
#X obj 336 55 loadbang;
#X msg 336 80 1;
#X obj 476 37 loadbang;
#X msg 476 62 \; pd dsp 1;
#X obj 25 374 clone -s 1 outchan 8;
#X connect 0 0 9 0;
#X connect 2 0 3 0;
#X connect 3 0 5 0;
#X connect 4 0 7 0;
#X connect 5 0 4 0;
#X connect 7 0 6 0;
#X connect 8 0 2 0;
#X connect 8 0 1 0;
#X connect 9 0 8 0;
#X connect 10 0 11 0;
#X connect 10 0 16 0;
#X connect 11 0 12 0;
#X connect 12 0 13 0;
#X connect 13 0 14 0;
#X connect 14 0 15 0;
#X connect 17 0 18 0;
#X connect 18 0 15 0;
#X connect 19 0 20 0;
#X restore 229 63 pd stuff;
#X obj 11 194 preset_master feu_grille;
#X obj 9 376 preset_master MASTER 2;
#N canvas 231 91 858 412 feu_grille 0;
#X obj 21 35 lamp feu_grille pixels;
#X obj 206 35 lamp feu_grille pars;
#X obj 390 35 lamp feu_grille rampes;
#X obj 21 338 lampgroup 0 0 1 2 3 7 8;
#X connect 0 0 3 0;
#X restore 10 276 pd feu_grille;
#X obj 252 194 preset_master tunnel;
#N canvas 275 542 858 412 tunnel 0;
#X obj 21 33 lamp tunnel pars;
#X obj 230 33 lamp tunnel rampes;
#X obj 20 336 lampgroup 1 10 11 12 13;
#X obj 420 32 parameter tunnel volume_feu;
#X obj 420 79 parameter tunnel volume_vent;
#X restore 251 276 pd tunnel;
#X obj 437 141 hsl 170 30 0 1 0 1 main-master-snd main-master-rcv master:100% 5 15 0 14 #ff8300 #ff0400 #000000 16900 1;
#N canvas 597 126 1307 624 son_vent 0;
#X obj 380 71 hsl 170 20 0 1 0 0 empty empty empty -2 -10 0 12 #fcfcfc #000000 #000000 0 1;
#X obj 377 96 pow 2;
#X msg 377 146 \$1 10;
#X obj 377 171 line~;
#X obj 78 456 dac~;
#X obj 79 315 hip~ 20;
#X obj 176 403 z~ 64;
#X obj 76 427 *~;
#X obj 77 375 +~;
#X obj 76 402 limiter~ 50;
#N canvas 148 114 710 623 noise1 0;
#X obj 49 378 noise~;
#X obj 48 426 bob~ 200 3;
#X obj 76 24 noise~;
#X obj 80 295 *~ 30;
#X obj 81 321 +~ 30;
#X obj 80 348 mtof~;
#X obj 79 266 *~ 10;
#X floatatom 141 33 5 0 0 0 - - - 0;
#X obj 130 425 sig~ 2;
#X obj 80 203 slop~ 1 0.008 0.01 0.08, f 38;
#X text 247 67 cutoff frequency in linear region;
#X text 280 88 maximum downward slew of linear region;
#X text 324 116 asymptotic downward cutoff frequency (for downward slews greater than maximum), f 41;
#X text 355 148 maximum upward slew of linear region;
#X text 414 171 asymptotic upward cutoff frequency (for upward slews greater than maximum), f 41;
#X obj 78 95 abs~;
#X obj 183 68 nbx 5 18 -1e+37 1e+37 0 1 empty empty empty 0 -10 0 12 #fcfcfc #000000 #000000 0 256;
#X obj 210 92 nbx 5 18 -1e+37 1e+37 0 1 empty empty empty 0 -10 0 12 #fcfcfc #000000 #000000 0 256;
#X obj 255 124 nbx 5 18 -1e+37 1e+37 0 1 empty empty empty 0 -10 0 12 #fcfcfc #000000 #000000 0.179995 256;
#X obj 290 152 nbx 5 18 -1e+37 1e+37 0 1 empty empty empty 0 -10 0 12 #fcfcfc #000000 #000000 0 256;
#X obj 345 177 nbx 5 18 -1e+37 1e+37 0 1 empty empty empty 0 -10 0 12 #fcfcfc #000000 #000000 0.140001 256;
#X obj 141 265 nbx 5 18 -1e+37 1e+37 0 1 empty empty empty 0 -10 0 12 #fcfcfc #000000 #000000 249.92 256;
#X obj 136 300 nbx 5 18 -1e+37 1e+37 0 1 empty empty empty 0 -10 0 12 #fcfcfc #000000 #000000 83.26 256;
#X obj 185 177 / 44100;
#X obj 290 176 / 44100;
#X obj 49 533 outlet~;
#X obj 132 398 nbx 5 18 -1e+37 1e+37 0 1 empty empty empty 0 -10 0 12 #fcfcfc #000000 #000000 3.24 256;
#X obj 78 63 lop~ 2;
#X obj 251 360 noise~;
#X obj 48 480 *~, f 25;
#X obj 250 387 lop~ 0.2;
#X floatatom 323 422 5 0 0 0 - - - 0;
#X obj 48 453 hip~ 600;
#X obj 250 423 *~ 2;
#X obj 249 456 +~ 0.25;
#X connect 0 0 1 0;
#X connect 1 0 32 0;
#X connect 2 0 27 0;
#X connect 3 0 4 0;
#X connect 4 0 5 0;
#X connect 5 0 1 1;
#X connect 6 0 3 0;
#X connect 7 0 27 1;
#X connect 8 0 1 2;
#X connect 9 0 6 0;
#X connect 15 0 9 0;
#X connect 16 0 9 1;
#X connect 17 0 23 0;
#X connect 18 0 9 3;
#X connect 19 0 24 0;
#X connect 20 0 9 5;
#X connect 21 0 3 1;
#X connect 22 0 4 1;
#X connect 23 0 9 2;
#X connect 24 0 9 4;
#X connect 26 0 8 0;
#X connect 27 0 15 0;
#X connect 28 0 30 0;
#X connect 29 0 25 0;
#X connect 30 0 33 0;
#X connect 31 0 33 1;
#X connect 32 0 29 0;
#X connect 33 0 34 0;
#X connect 34 0 29 1;
#X restore 68 35 pd noise1;
#X floatatom 167 218 5 0 0 0 - - - 0;
#X obj 100 143 hip~ 200;
#X obj 101 167 delwrite~ \$0-vecho 1000;
#X obj 106 193 delread~ \$0-vecho 500;
#X obj 67 91 *~;
#X floatatom 210 217 5 0 0 0 - - - 0;
#X obj 114 255 rev3~ 95 95 3500 50;
#X obj 377 121 * 2;
#X obj 397 266 del;
#X obj 372 225 loadbang;
#X obj 397 290 bng 20 250 50 0 empty empty empty 0 -10 0 12 #fcfcfc #000000 #000000;
#X obj 397 315 random 10;
#X obj 397 340 * 2;
#X obj 397 390 t b f, f 13;
#X obj 485 414 mtof;
#X obj 454 469 osc~;
#X obj 397 440 line~;
#X obj 397 465 *~;
#X obj 397 490 *~;
#X obj 396 547 *~;
#X obj 395 572 *~ 0.02;
#X msg 397 415 1 \, 0 6000;
#X obj 561 473 osc~;
#X obj 561 498 *~ 0.6;
#X floatatom 457 349 5 0 0 0 - - - 0;
#X obj 491 497 osc~;
#X obj 619 475 osc~;
#X obj 619 500 *~ 0.3;
#X obj 94 227 *~ 0.5;
#X obj 397 365 + 90;
#X obj 687 263 del;
#X obj 662 222 loadbang;
#X obj 687 287 bng 20 250 50 0 empty empty empty 0 -10 0 12 #fcfcfc #000000 #000000;
#X obj 687 312 random 10;
#X obj 687 337 * 2;
#X obj 687 387 t b f, f 13;
#X obj 775 411 mtof;
#X obj 749 465 osc~;
#X obj 687 437 line~;
#X obj 687 462 *~;
#X obj 687 487 *~;
#X obj 686 544 *~;
#X obj 685 569 *~ 0.02;
#X msg 687 412 1 \, 0 6000;
#X obj 858 470 osc~;
#X obj 858 495 *~ 0.6;
#X floatatom 747 346 5 0 0 0 - - - 0;
#X obj 791 494 osc~;
#X obj 916 472 osc~;
#X obj 916 497 *~ 0.3;
#X obj 791 471 -~ 10;
#X obj 687 362 + 90;
#X obj 791 447 *~ 1.002;
#X obj 916 448 * 4.01;
#X obj 858 446 * 2.013;
#X obj 561 449 * 2.017;
#X obj 491 450 *~ 1.0032;
#X obj 491 474 -~ 3;
#X obj 619 451 * 4.019;
#X obj 436 288 + 500;
#X obj 726 285 + 500;
#X obj 436 263 random 20000;
#X obj 726 260 random 20000;
#N canvas 148 114 710 623 noise1 0;
#X obj 49 378 noise~;
#X obj 48 426 bob~ 200 3;
#X obj 76 24 noise~;
#X obj 80 295 *~ 30;
#X obj 81 321 +~ 30;
#X obj 80 348 mtof~;
#X obj 79 266 *~ 10;
#X floatatom 141 33 5 0 0 0 - - - 0;
#X obj 130 425 sig~ 2;
#X obj 80 203 slop~ 1 0.008 0.01 0.08, f 38;
#X text 247 67 cutoff frequency in linear region;
#X text 280 88 maximum downward slew of linear region;
#X text 324 116 asymptotic downward cutoff frequency (for downward slews greater than maximum), f 41;
#X text 355 148 maximum upward slew of linear region;
#X text 414 171 asymptotic upward cutoff frequency (for upward slews greater than maximum), f 41;
#X obj 78 95 abs~;
#X obj 183 68 nbx 5 18 -1e+37 1e+37 0 1 empty empty empty 0 -10 0 12 #fcfcfc #000000 #000000 0 256;
#X obj 210 92 nbx 5 18 -1e+37 1e+37 0 1 empty empty empty 0 -10 0 12 #fcfcfc #000000 #000000 0 256;
#X obj 255 124 nbx 5 18 -1e+37 1e+37 0 1 empty empty empty 0 -10 0 12 #fcfcfc #000000 #000000 0.179995 256;
#X obj 290 152 nbx 5 18 -1e+37 1e+37 0 1 empty empty empty 0 -10 0 12 #fcfcfc #000000 #000000 0 256;
#X obj 345 177 nbx 5 18 -1e+37 1e+37 0 1 empty empty empty 0 -10 0 12 #fcfcfc #000000 #000000 0.140001 256;
#X obj 141 265 nbx 5 18 -1e+37 1e+37 0 1 empty empty empty 0 -10 0 12 #fcfcfc #000000 #000000 249.92 256;
#X obj 136 300 nbx 5 18 -1e+37 1e+37 0 1 empty empty empty 0 -10 0 12 #fcfcfc #000000 #000000 92.26 256;
#X obj 185 177 / 44100;
#X obj 290 176 / 44100;
#X obj 49 533 outlet~;
#X obj 132 398 nbx 5 18 -1e+37 1e+37 0 1 empty empty empty 0 -10 0 12 #fcfcfc #000000 #000000 3.24 256;
#X obj 78 63 lop~ 2;
#X obj 251 360 noise~;
#X obj 48 480 *~, f 25;
#X obj 250 387 lop~ 0.2;
#X floatatom 323 422 5 0 0 0 - - - 0;
#X obj 48 453 hip~ 600;
#X obj 250 423 *~ 2;
#X obj 249 456 +~ 0.25;
#X obj 48 507 *~ 0.5;
#X connect 0 0 1 0;
#X connect 1 0 32 0;
#X connect 2 0 27 0;
#X connect 3 0 4 0;
#X connect 4 0 5 0;
#X connect 5 0 1 1;
#X connect 6 0 3 0;
#X connect 7 0 27 1;
#X connect 8 0 1 2;
#X connect 9 0 6 0;
#X connect 15 0 9 0;
#X connect 16 0 9 1;
#X connect 17 0 23 0;
#X connect 18 0 9 3;
#X connect 19 0 24 0;
#X connect 20 0 9 5;
#X connect 21 0 3 1;
#X connect 22 0 4 1;
#X connect 23 0 9 2;
#X connect 24 0 9 4;
#X connect 26 0 8 0;
#X connect 27 0 15 0;
#X connect 28 0 30 0;
#X connect 29 0 35 0;
#X connect 30 0 33 0;
#X connect 31 0 33 1;
#X connect 32 0 29 0;
#X connect 33 0 34 0;
#X connect 34 0 29 1;
#X connect 35 0 25 0;
#X restore 171 32 pd noise1;
#X obj 985 252 del;
#X obj 960 211 loadbang;
#X obj 985 276 bng 20 250 50 0 empty empty empty 0 -10 0 12 #fcfcfc #000000 #000000;
#X obj 985 376 t b f, f 13;
#X obj 1073 400 mtof;
#X obj 1047 454 osc~;
#X obj 985 451 *~;
#X obj 985 476 *~;
#X obj 984 533 *~;
#X obj 1156 459 osc~;
#X obj 1156 484 *~ 0.6;
#X floatatom 1045 335 5 0 0 0 - - - 0;
#X obj 1089 483 osc~;
#X obj 1214 461 osc~;
#X obj 1089 460 -~ 10;
#X obj 1089 436 *~ 1.002;
#X obj 1156 435 * 2.013;
#X obj 1024 249 random 20000;
#X obj 984 583 *~ 0.5;
#X obj 984 558 lop~ 100;
#X obj 985 325 * 2;
#X obj 1024 274 + 6000;
#X obj 1214 437 * 1.0039;
#X obj 1214 486 *~ 0.5;
#X floatatom 943 376 5 0 0 0 - - - 0;
#X obj 985 351 + 28;
#X obj 985 301 random 7;
#X obj 985 426 vline~;
#X msg 949 402 1 10 \, 0 12000 50;
#X obj 395 36 r tunnel-volume_vent-snd;
#X connect 0 0 1 0;
#X connect 1 0 18 0;
#X connect 2 0 3 0;
#X connect 3 0 15 1;
#X connect 5 0 8 0;
#X connect 6 0 7 1;
#X connect 7 0 4 0;
#X connect 7 0 4 1;
#X connect 8 0 6 0;
#X connect 8 0 9 0;
#X connect 9 0 7 0;
#X connect 10 0 15 0;
#X connect 11 0 17 2;
#X connect 12 0 13 0;
#X connect 14 0 17 0;
#X connect 14 0 39 0;
#X connect 15 0 5 0;
#X connect 15 0 12 0;
#X connect 16 0 17 3;
#X connect 17 0 5 0;
#X connect 18 0 2 0;
#X connect 19 0 21 0;
#X connect 20 0 21 0;
#X connect 21 0 22 0;
#X connect 21 0 72 0;
#X connect 22 0 23 0;
#X connect 23 0 40 0;
#X connect 24 0 32 0;
#X connect 24 1 25 0;
#X connect 25 0 26 0;
#X connect 25 0 66 0;
#X connect 25 0 67 0;
#X connect 25 0 69 0;
#X connect 26 0 30 1;
#X connect 27 0 28 0;
#X connect 27 0 28 1;
#X connect 28 0 29 0;
#X connect 28 0 29 1;
#X connect 29 0 30 0;
#X connect 30 0 31 0;
#X connect 31 0 15 0;
#X connect 32 0 27 0;
#X connect 33 0 34 0;
#X connect 34 0 30 1;
#X connect 35 0 40 1;
#X connect 36 0 30 1;
#X connect 37 0 38 0;
#X connect 38 0 30 1;
#X connect 39 0 5 0;
#X connect 40 0 24 0;
#X connect 41 0 43 0;
#X connect 42 0 43 0;
#X connect 43 0 44 0;
#X connect 43 0 73 0;
#X connect 44 0 45 0;
#X connect 45 0 62 0;
#X connect 46 0 54 0;
#X connect 46 1 47 0;
#X connect 47 0 48 0;
#X connect 47 0 63 0;
#X connect 47 0 64 0;
#X connect 47 0 65 0;
#X connect 48 0 52 1;
#X connect 49 0 50 0;
#X connect 49 0 50 1;
#X connect 50 0 51 0;
#X connect 50 0 51 1;
#X connect 51 0 52 0;
#X connect 52 0 53 0;
#X connect 53 0 15 0;
#X connect 54 0 49 0;
#X connect 55 0 56 0;
#X connect 56 0 52 1;
#X connect 57 0 62 1;
#X connect 58 0 52 1;
#X connect 59 0 60 0;
#X connect 60 0 52 1;
#X connect 61 0 58 0;
#X connect 62 0 46 0;
#X connect 63 0 61 0;
#X connect 64 0 59 0;
#X connect 65 0 55 0;
#X connect 66 0 33 0;
#X connect 67 0 68 0;
#X connect 68 0 36 0;
#X connect 69 0 37 0;
#X connect 70 0 19 0;
#X connect 71 0 41 0;
#X connect 72 0 70 0;
#X connect 73 0 71 0;
#X connect 74 0 15 0;
#X connect 75 0 77 0;
#X connect 76 0 77 0;
#X connect 77 0 92 0;
#X connect 77 0 101 0;
#X connect 78 0 103 0;
#X connect 78 1 79 0;
#X connect 79 0 80 0;
#X connect 79 0 90 0;
#X connect 79 0 91 0;
#X connect 79 0 97 0;
#X connect 80 0 83 1;
#X connect 81 0 82 0;
#X connect 81 0 82 1;
#X connect 82 0 83 0;
#X connect 83 0 94 0;
#X connect 84 0 85 0;
#X connect 85 0 83 1;
#X connect 86 0 100 1;
#X connect 87 0 83 1;
#X connect 88 0 98 0;
#X connect 89 0 87 0;
#X connect 90 0 89 0;
#X connect 91 0 84 0;
#X connect 92 0 96 0;
#X connect 93 0 15 0;
#X connect 94 0 93 0;
#X connect 95 0 100 0;
#X connect 96 0 75 0;
#X connect 97 0 88 0;
#X connect 98 0 83 1;
#X connect 100 0 78 0;
#X connect 100 0 99 0;
#X connect 101 0 95 0;
#X connect 102 0 81 0;
#X connect 102 0 81 1;
#X connect 103 0 102 0;
#X connect 104 0 0 0;
#X restore 307 72 pd son_vent;
#X obj 622 50 vu 20 120 out1_vu 1 4 -10 0 12 #404040 #000000 0 0;
#X obj 646 50 vu 20 120 out2_vu 2 4 -10 0 12 #404040 #000000 0 0;
#X obj 670 50 vu 20 120 out3_vu 3 4 -10 0 12 #404040 #000000 0 0;
#X obj 694 50 vu 20 120 out4_vu 4 4 -10 0 12 #404040 #000000 0 0;
#X obj 718 50 vu 20 120 out5_vu 5 4 -10 0 12 #404040 #000000 0 0;
#X obj 742 50 vu 20 120 out6_vu 6 4 -10 0 12 #404040 #000000 0 0;
#X obj 766 50 vu 20 120 out7_vu 7 4 -10 0 12 #404040 #000000 0 0;
#X obj 790 50 vu 20 120 out8_vu 8 4 -10 0 12 #404040 #000000 0 0;
