#N canvas 977 425 655 581 10;
#X declare -path ..;
#X obj 33 30 netreceive -u -b 18080;
#X obj 33 50 oscparse;
#X obj 32 277 netsend -u -b;
#X obj 67 220 loadbang;
#X msg 67 241 connect localhost 8080;
#X obj 32 305 tgl 15 0 empty empty empty 17 7 0 10 #fcfcfc #000000 #000000 0 1;
#X obj 32 179 list prepend send;
#X obj 32 200 list trim;
#X obj 32 158 oscformat SET;
#X obj 32 136 list;
#X obj 33 70 list trim;
#X obj 220 97 spigot;
#X obj 220 120 print;
#X obj 271 103 tgl 15 0 empty empty empty 17 7 0 10 #fcfcfc #000000 #000000 0 1;
#X obj 122 155 r toRemoteDirect;
#X obj 33 91 s fromRemote;
#X obj 32 114 r toRemote;
#X obj 220 74 r fromRemote;
#X msg 213 238 disconnect;
#X obj 31 451 s OSCrefresh;
#X obj 31 394 bng 15 250 50 0 empty empty empty 17 7 0 10 #fcfcfc #000000 #000000;
#X obj 72 374 loadbang;
#X obj 72 400 tgl 15 0 empty empty empty 17 7 0 10 #fcfcfc #000000 #000000 0 1;
#X obj 72 421 metro 3000;
#X obj 317 95 spigot;
#X obj 317 118 print;
#X obj 368 101 tgl 15 0 empty empty empty 17 7 0 10 #fcfcfc #000000 #000000 0 1;
#X obj 317 72 r toRemote;
#X obj 396 72 r toRemoteDirect;
#X obj 396 95 spigot;
#X obj 396 118 print;
#X obj 447 101 tgl 15 0 empty empty empty 17 7 0 10 #fcfcfc #000000 #000000 0 1;
#X obj 31 326 r fromRemote;
#X obj 31 349 route client_connected;
#X obj 31 372 b;
#X obj 421 10 declare -path ..;
#X obj 392 157 rem remote_server;
#X obj 239 495 ggee/shell;
#X msg 239 440 screen -S OSC -d -m \$1;
#X msg 239 391 symbol runOSC.sh;
#X obj 239 418 file which;
#X obj 239 317 bng 18 250 50 0 empty empty empty 0 -9 0 10 #fcfcfc #000000 #000000;
#X obj 239 293 loadbang;
#X obj 436 188 rem master;
#X msg 266 466 killall open-stage-control;
#X obj 239 341 t b b;
#X obj 239 366 del 500;
#X connect 0 0 1 0;
#X connect 1 0 10 0;
#X connect 2 0 5 0;
#X connect 3 0 4 0;
#X connect 4 0 2 0;
#X connect 6 0 7 0;
#X connect 7 0 2 0;
#X connect 8 0 6 0;
#X connect 9 0 8 0;
#X connect 10 0 15 0;
#X connect 11 0 12 0;
#X connect 13 0 11 1;
#X connect 14 0 6 0;
#X connect 16 0 9 0;
#X connect 17 0 11 0;
#X connect 18 0 2 0;
#X connect 20 0 19 0;
#X connect 22 0 23 0;
#X connect 23 0 19 0;
#X connect 24 0 25 0;
#X connect 26 0 24 1;
#X connect 27 0 24 0;
#X connect 28 0 29 0;
#X connect 29 0 30 0;
#X connect 31 0 29 1;
#X connect 32 0 33 0;
#X connect 33 0 34 0;
#X connect 34 0 20 0;
#X connect 38 0 37 0;
#X connect 39 0 40 0;
#X connect 40 0 38 0;
#X connect 41 0 45 0;
#X connect 42 0 41 0;
#X connect 44 0 37 0;
#X connect 45 0 46 0;
#X connect 45 1 44 0;
#X connect 46 0 39 0;
