#N canvas 122 394 368 379 10;
#X declare -path moonlib;
#X obj 9 30 cnv 6 50 6 empty \$0-colorcan-rcv empty 20 12 0 14 #fcfcfc #fcfcfc 0;
#N canvas 738 155 495 501 guts 1;
#N canvas 335 129 371 431 makelabel 0;
#X obj 139 228 for++ 17 24;
#X obj 139 253 makesymbol %s.;
#X msg 232 282 symbol \$1%s.;
#X msg 232 230 symbol %s.;
#X obj 175 205 - 1;
#X obj 102 286 symbol;
#X obj 139 153 t b a;
#X obj 102 310 pack s f;
#X obj 102 337 makesymbol %s%s;
#X obj 163 175 unpack f f f;
#X obj 51 359 pack f s;
#X obj 139 130 pack f f;
#X obj 139 69 * 8;
#X obj 90 34 t f f;
#X obj 139 90 t f f;
#X obj 139 49 - 1;
#X obj 169 108 + 8;
#X obj 139 110 + 1;
#X symbolatom 198 387 0 0 0 0 - - - 0;
#X obj 51 401 s \$0-patternbutB-rcv;
#X msg 51 380 \$1 label \$2;
#X msg 124 10 7;
#X connect 0 0 1 0;
#X connect 0 1 5 0;
#X connect 1 0 2 0;
#X connect 1 0 5 1;
#X connect 2 0 1 1;
#X connect 3 0 1 1;
#X connect 4 0 0 1;
#X connect 5 0 7 0;
#X connect 6 0 0 0;
#X connect 6 1 9 0;
#X connect 7 0 8 0;
#X connect 8 0 10 1;
#X connect 8 0 18 0;
#X connect 9 0 0 0;
#X connect 9 1 4 0;
#X connect 9 1 3 0;
#X connect 9 1 7 1;
#X connect 10 0 20 0;
#X connect 11 0 6 0;
#X connect 12 0 14 0;
#X connect 13 0 10 0;
#X connect 13 1 15 0;
#X connect 14 0 17 0;
#X connect 14 1 16 0;
#X connect 15 0 12 0;
#X connect 16 0 11 1;
#X connect 17 0 11 0;
#X connect 20 0 19 0;
#X connect 21 0 13 0;
#X restore 239 1 pd makelabel;
#X obj 37 49 route _all_;
#X obj 37 71 route store load;
#X obj 37 26 r \$1-pattern-snd;
#X obj 119 132 div 8;
#X obj 37 135 f;
#X obj 119 174 t b f;
#X obj 119 265 demux;
#X obj 119 218 t f f;
#X obj 149 239 ==;
#X obj 119 153 change -1;
#X obj 119 243 + 1;
#X obj 37 157 t f f;
#X obj 88 182 + 1;
#X obj 37 181 mod 8;
#X obj 37 204 pack f f;
#N canvas 332 215 398 459 pattern_buttons 0;
#X obj 255 46 tgl 15 0 \$0-patternsaving-snd \$0-patternsaving-rcv empty 0 -6 0 8 #fcfcfc #000000 #000000 0 1;
#X obj 68 142 demux;
#X msg 128 186 0;
#X obj 121 404 s \$1-pattern-snd;
#X obj 24 294 drip;
#X obj 24 273 l _all_;
#X obj 24 315 pack s f;
#X obj 24 253 t b f;
#X obj 65 252 a2l;
#X obj 65 230 r \$1-patternlist;
#X msg 24 347 \$1 load \$2;
#X msg 203 338 \$1 store \$2;
#X obj 203 294 drip;
#X obj 203 273 l _all_;
#X obj 203 315 pack s f;
#X obj 203 253 t b f;
#X obj 244 252 a2l;
#X obj 244 232 r \$1-patternlist;
#X obj 255 20 r \$0-savepattern-snd;
#X obj 42 12 r \$0-patternbutB-snd;
#X obj 255 70 outlet;
#X text 249 86 update color;
#X obj 42 32 unpack f f;
#X obj 42 52 - 1;
#X obj 42 72 * 8;
#X obj 68 72 +;
#X obj 98 166 t f b;
#X obj 68 94 s \$1-patternButton-rcv;
#X obj 68 120 r \$1-patternButton-snd;
#X connect 0 0 1 1;
#X connect 0 0 20 0;
#X connect 1 0 7 0;
#X connect 1 1 26 0;
#X connect 2 0 0 0;
#X connect 4 0 6 0;
#X connect 5 0 4 0;
#X connect 6 0 10 0;
#X connect 7 0 5 0;
#X connect 7 1 6 1;
#X connect 8 0 5 1;
#X connect 9 0 8 0;
#X connect 10 0 3 0;
#X connect 11 0 3 0;
#X connect 12 0 14 0;
#X connect 13 0 12 0;
#X connect 14 0 11 0;
#X connect 15 0 13 0;
#X connect 15 1 14 1;
#X connect 16 0 13 1;
#X connect 17 0 16 0;
#X connect 18 0 0 0;
#X connect 19 0 22 0;
#X connect 22 0 23 0;
#X connect 22 1 25 1;
#X connect 23 0 24 0;
#X connect 24 0 25 0;
#X connect 25 0 27 0;
#X connect 26 0 15 0;
#X connect 26 1 2 0;
#X connect 28 0 1 0;
#X restore 170 71 pd pattern_buttons;
#X obj 119 369 s \$0-patternbutB-rcv;
#X obj 171 48 bng 15 250 50 0 empty empty empty 0 -6 0 8 #fcfcfc #000000 #000000;
#X msg 161 132 set -1;
#X obj 131 105 t b f;
#X obj 182 294 pack f f;
#X obj 119 294 pack f f;
#X msg 119 344 \$1 color \$2 \$2 22;
#X obj 216 236 * 13;
#X msg 37 225 \$2 set \$1;
#X obj 287 254 s \$1-setap-snd;
#X obj 287 104 loadbang;
#X obj 287 190 b;
#X obj 298 146 route _all_;
#X obj 298 167 route _loaded_ _saved_;
#N canvas 4 75 494 169 saveload 0;
#X obj 11 15 r \$0-saveas-snd;
#X obj 122 15 r \$0-save-snd;
#X obj 218 15 r \$0-load-snd;
#X obj 329 15 r \$0-reload-snd;
#X msg 11 35 save;
#X msg 122 35 savein;
#X msg 218 35 load;
#X msg 329 34 loadin;
#X obj 122 141 s \$1-apmaster-rcv;
#X obj 323 86 r \$1-_apfile_-rcv;
#X msg 323 107 label \$1;
#X obj 323 128 s \$0-filenamelabel-rcv;
#X connect 0 0 4 0;
#X connect 1 0 5 0;
#X connect 2 0 6 0;
#X connect 3 0 7 0;
#X connect 4 0 8 0;
#X connect 5 0 8 0;
#X connect 6 0 8 0;
#X connect 7 0 8 0;
#X connect 9 0 10 0;
#X connect 10 0 11 0;
#X restore 284 41 pd saveload;
#X obj 37 -1 dispatch \$0-patternbutB 1 8;
#X msg 287 234 _all_ _nbpattern_ 64;
#X msg 14 102 1;
#X msg 119 197 0 \, 1 \, 2 \, 3 \, 4 \, 5 \, 6 \, 7;
#X obj 298 126 r \$3-setap-snd;
#X obj 355 99 r \$1-setap-snd;
#X obj 329 287 r \$1-patternButton-rcv;
#X obj 329 355 s \$1-patternButton-snd;
#X obj 335 7 declare -path moonlib;
#X listbox 63 423 20 0 0 0 - - - 0;
#X msg 222 433 1 color 0 22 22;
#X msg 182 319 \$1 color \$2 15 22;
#X obj 287 212 del 10;
#X connect 1 0 2 0;
#X connect 2 0 5 0;
#X connect 2 1 5 0;
#X connect 3 0 1 0;
#X connect 4 0 10 0;
#X connect 4 0 13 0;
#X connect 5 0 12 0;
#X connect 6 0 35 0;
#X connect 6 1 9 1;
#X connect 7 0 22 0;
#X connect 7 1 21 0;
#X connect 8 0 11 0;
#X connect 8 1 9 0;
#X connect 9 0 7 1;
#X connect 10 0 6 0;
#X connect 11 0 7 0;
#X connect 12 0 14 0;
#X connect 12 1 4 0;
#X connect 13 0 15 1;
#X connect 14 0 15 0;
#X connect 15 0 25 0;
#X connect 16 0 20 0;
#X connect 18 0 20 0;
#X connect 19 0 10 0;
#X connect 20 0 5 0;
#X connect 20 1 19 0;
#X connect 20 1 24 0;
#X connect 21 0 43 0;
#X connect 22 0 23 0;
#X connect 23 0 17 0;
#X connect 23 0 41 0;
#X connect 24 0 21 1;
#X connect 24 0 22 1;
#X connect 25 0 17 0;
#X connect 27 0 28 0;
#X connect 28 0 44 0;
#X connect 29 0 30 0;
#X connect 30 0 28 0;
#X connect 30 1 28 0;
#X connect 33 0 26 0;
#X connect 34 0 5 0;
#X connect 35 0 8 0;
#X connect 36 0 29 0;
#X connect 37 0 29 0;
#X connect 38 0 39 0;
#X connect 42 0 17 0;
#X connect 43 0 17 0;
#X connect 43 0 41 0;
#X connect 44 0 33 0;
#X restore 243 11 pd guts;
#X obj 0 20 cnv 15 230 56 empty empty empty 20 12 0 14 #fcac44 #404040 0;
#X obj 35 23 hradio 24 1 0 8 \$0-patternbutB1-snd \$0-patternbutB1-rcv 1\ \ \ \ 2\ \ \ \ 3\ \ \ \ 4\ \ \ \ 5\ \ \ \ 6\ \ \ \ 7\ \ \ \ 8 6 14 1 15 #fcfcfc #e8e828 #000000 0;
#X obj 7 49 bng 24 250 50 0 \$0-savepattern-snd \$0-savepattern-rcv store -6 -6 1 12 #fc2828 #000000 #fc2828;
#X obj 35 50 hradio 24 1 0 8 \$0-patternbutB2-snd \$0-patternbutB2-rcv 9\ \ \ 10\ \ 11\ \ 12\ \ 13\ \ 14\ \ 15\ \ 16 6 14 1 15 #fcfcfc #fcfcfc #000000 0;
#X obj 37 129 hradio 12 1 0 8 \$0-patternbutB3-snd \$0-patternbutB3-rcv 17.18.19.20.21.22.23.24 1 -5 1 7 #fcfcfc #fcfcfc #000000 0;
#X obj 137 129 hradio 12 1 0 8 \$0-patternbutB4-snd \$0-patternbutB4-rcv 25.26.27.28.29.30.31.32 1 -5 1 7 #fcfcfc #fcfcfc #000000 0;
#X obj 37 207 cnv 15 230 40 empty empty file 10 6 1 10 #e8e828 #3c50fc 0;
#X obj 91 219 bng 12 250 50 0 \$0-saveas-snd \$0-saveas-rcv saveas... -8 -6 1 8 #fcac44 #000000 #fc2828;
#X obj 129 219 bng 12 250 50 0 \$0-save-snd \$0-save-rcv save -2 -6 1 8 #fc2828 #000000 #fc2828;
#X obj 186 219 bng 12 250 50 0 \$0-load-snd \$0-load-rcv load... -2 -6 1 8 #14e814 #000000 #285014;
#X obj 217 219 bng 12 250 50 0 \$0-reload-snd \$0-reload-rcv reload -2 -6 1 8 #28f4f4 #000000 #285014;
#X obj 40 235 cnv 10 215 10 empty \$0-filenamelabel-rcv presets/generique2 2 5 1 8 #fcfcfc #000000 0;
#X obj 37 152 hradio 12 1 0 8 \$0-patternbutB5-snd \$0-patternbutB5-rcv 33.34.35.36.37.38.39.40 1 -5 1 7 #fcfcfc #fcfcfc #000000 0;
#X obj 137 152 hradio 12 1 0 8 \$0-patternbutB6-snd \$0-patternbutB6-rcv 41.42.43.44.45.46.47.48 1 -5 1 7 #fcfcfc #fcfcfc #000000 0;
#X obj 37 175 hradio 12 1 0 8 \$0-patternbutB7-snd \$0-patternbutB7-rcv 49.50.51.52.53.54.55.56 1 -5 1 7 #fcfcfc #fcfcfc #000000 0;
#X obj 137 175 hradio 12 1 0 8 \$0-patternbutB8-snd \$0-patternbutB8-rcv 57.58.59.60.61.62.63.64 1 -5 1 7 #fcfcfc #fcfcfc #000000 0;
#X coords 0 0 1 1 230 76 2 0 0;
