#N canvas 735 420 519 350 12;
#X obj 49 39 inlet;
#X obj 101 39 inlet;
#X obj 150 38 inlet;
#X obj 202 38 inlet;
#X obj 49 124 t b f, f 6;
#X obj 49 194 f, f 6;
#X obj 101 123 t b f;
#X obj 150 123 t b f;
#X obj 202 122 t b f;
#X obj 49 169 del 1;
#X obj 49 284 outlet;
#X obj 49 64 i;
#X obj 49 89 change;
#X obj 101 64 i;
#X obj 101 89 change;
#X obj 150 65 i;
#X obj 150 90 change;
#X obj 202 65 i;
#X obj 202 90 change;
#X obj 269 39 inlet;
#X obj 321 39 inlet;
#X obj 370 38 inlet;
#X obj 422 38 inlet;
#X obj 269 124 t b f, f 6;
#X obj 321 123 t b f;
#X obj 370 123 t b f;
#X obj 422 122 t b f;
#X obj 269 64 i;
#X obj 269 89 change;
#X obj 321 64 i;
#X obj 321 89 change;
#X obj 370 65 i;
#X obj 370 90 change;
#X obj 422 65 i;
#X obj 422 90 change;
#X obj 49 252 list split \$1;
#X obj 49 219 pack f f f f f f f f, f 32;
#X connect 0 0 11 0;
#X connect 1 0 13 0;
#X connect 2 0 15 0;
#X connect 3 0 17 0;
#X connect 4 0 9 0;
#X connect 4 1 5 1;
#X connect 5 0 36 0;
#X connect 6 0 9 0;
#X connect 6 1 36 1;
#X connect 7 0 9 0;
#X connect 7 1 36 2;
#X connect 8 0 9 0;
#X connect 8 1 36 3;
#X connect 9 0 5 0;
#X connect 11 0 12 0;
#X connect 12 0 4 0;
#X connect 13 0 14 0;
#X connect 14 0 6 0;
#X connect 15 0 16 0;
#X connect 16 0 7 0;
#X connect 17 0 18 0;
#X connect 18 0 8 0;
#X connect 19 0 27 0;
#X connect 20 0 29 0;
#X connect 21 0 31 0;
#X connect 22 0 33 0;
#X connect 23 0 9 0;
#X connect 23 1 36 4;
#X connect 24 0 9 0;
#X connect 24 1 36 5;
#X connect 25 0 9 0;
#X connect 25 1 36 6;
#X connect 26 0 9 0;
#X connect 26 1 36 7;
#X connect 27 0 28 0;
#X connect 28 0 23 0;
#X connect 29 0 30 0;
#X connect 30 0 24 0;
#X connect 31 0 32 0;
#X connect 32 0 25 0;
#X connect 33 0 34 0;
#X connect 34 0 26 0;
#X connect 35 0 10 0;
#X connect 36 0 35 0;
