#N canvas 365 344 450 565 10;
#X declare -path creb;
#X obj 64 65 cnv 15 160 100 empty empty bomb-factory 10 12 1 16 #e0e0e0 #3c50fc 0;
#X obj 70 117 bng 20 400 50 0 empty empty boom 0 -6 1 8 #fcac44 #fc2828 #fc2828;
#X obj 108 146 hsl 140 15 0 1 0 1 \$0-size \$0-size explosion-size 35 7 1 8 #fcac44 #000000 #fcfcfc 13900 1;
#X obj 104 339 +~;
#X obj 81 372 +~;
#X obj 80 170 t b b b;
#X obj 114 426 +~;
#X obj 82 396 *~ 0.5;
#X obj 131 395 *~ 0.3;
#N canvas 0 0 351 300 chirp 0;
#X obj 55 195 cos~;
#X obj 53 101 line~;
#X obj 52 150 *~ 16;
#X obj 54 172 wrap~;
#X obj 52 126 *~;
#X msg 69 71 1 0;
#X obj 34 44 t b b;
#X msg 33 70 0 10;
#X obj 54 218 hip~ 1;
#X obj 34 15 inlet trigger;
#X obj 54 243 outlet~;
#X obj 143 17 inlet dilate;
#X text 137 63 High frequency attack;
#X connect 0 0 8 0;
#X connect 1 0 4 0;
#X connect 1 0 4 1;
#X connect 2 0 3 0;
#X connect 3 0 0 0;
#X connect 4 0 2 0;
#X connect 5 0 1 0;
#X connect 6 0 7 0;
#X connect 6 1 5 0;
#X connect 7 0 1 0;
#X connect 8 0 10 0;
#X connect 9 0 6 0;
#X connect 11 0 2 1;
#X restore 148 303 pd chirp impulse;
#X obj 241 235 swap 1;
#X obj 241 259 -;
#X obj 241 280 * 5;
#N canvas 0 0 379 427 boomer 0;
#X obj 26 155 noise~;
#X obj 25 207 lop~ 70;
#X obj 24 232 lop~ 70;
#X obj 24 278 hip~ 1;
#X obj 25 363 *~;
#X obj 88 278 ead~ 100 9000;
#X obj 24 255 *~ 40;
#X obj 171 253 + 600;
#X obj 171 230 * 12000;
#X obj 93 147 * 200;
#X obj 26 177 bp~ 70 1;
#X obj 25 328 *~;
#X obj 88 250 *~ 0.5;
#X obj 41 305 +~ 0.35;
#X obj 81 84 swap 1;
#X obj 81 120 -;
#X obj 89 21 inlet trigger;
#X obj 11 21 inlet size;
#X obj 11 45 t f f f;
#X obj 24 391 outlet~;
#X obj 94 168 + 10;
#X text 115 54 Thick slice of brown + black noise;
#X connect 0 0 10 0;
#X connect 1 0 2 0;
#X connect 2 0 6 0;
#X connect 3 0 11 0;
#X connect 4 0 19 0;
#X connect 5 0 4 1;
#X connect 6 0 3 0;
#X connect 7 0 5 2;
#X connect 8 0 7 0;
#X connect 9 0 20 0;
#X connect 10 0 1 0;
#X connect 11 0 4 0;
#X connect 12 0 13 0;
#X connect 13 0 11 1;
#X connect 14 0 15 0;
#X connect 14 1 15 1;
#X connect 15 0 9 0;
#X connect 16 0 5 0;
#X connect 17 0 18 0;
#X connect 18 0 14 0;
#X connect 18 1 12 0;
#X connect 18 2 8 0;
#X connect 20 0 10 1;
#X connect 20 0 1 1;
#X connect 20 0 2 1;
#X restore 80 304 pd boomer;
#N canvas 0 0 455 525 events 0;
#X obj 43 372 / 200;
#X obj 71 261 del 80;
#X obj 143 309 random 5;
#X obj 143 331 + 25;
#X obj 143 283 del 80;
#X obj 43 201 random 8;
#X obj 43 223 + 8;
#X obj 71 284 random 10;
#X obj 69 306 + 15;
#X obj 187 200 random 100;
#X obj 108 201 random 50;
#X obj 102 159 t b b b b b;
#X obj 185 159 * 200;
#X obj 102 130 del 30;
#X obj 139 110 + 5;
#X obj 139 89 * 40;
#X obj 183 333 outlet done;
#X obj 43 396 outlet noiseval;
#X obj 38 60 inlet trigger;
#X text 13 14 Series of echos from blast \, restart a new note 3 times with adjustable spread.;
#X obj 139 59 r \$0-size;
#X connect 0 0 17 0;
#X connect 1 0 4 0;
#X connect 1 0 7 0;
#X connect 2 0 3 0;
#X connect 3 0 0 0;
#X connect 4 0 2 0;
#X connect 4 0 16 0;
#X connect 5 0 6 0;
#X connect 6 0 0 0;
#X connect 7 0 8 0;
#X connect 8 0 0 0;
#X connect 9 0 4 1;
#X connect 10 0 1 1;
#X connect 11 0 1 0;
#X connect 11 1 5 0;
#X connect 11 2 10 0;
#X connect 11 3 9 0;
#X connect 12 0 10 1;
#X connect 12 0 9 1;
#X connect 13 0 11 0;
#X connect 14 0 13 1;
#X connect 15 0 14 0;
#X connect 18 0 13 0;
#X connect 20 0 15 0;
#X connect 20 0 12 0;
#X restore 80 205 pd events;
#N canvas 0 0 588 538 rippernoise 0;
#X obj 38 140 noise~;
#X obj 39 390 *~;
#X obj 39 250 clip~ -1 1;
#X obj 40 207 hip~ 20;
#X obj 39 351 bp~ 6000 1;
#X obj 123 362 *~;
#X obj 39 324 cos~;
#X obj 132 328 ead~ 1 7000;
#X obj 124 140 -;
#X obj 63 99 * 7000;
#X obj 124 113 swap 1;
#X obj 205 305 * 7000;
#X obj 205 282 pow 2;
#X obj 63 76 pow 2;
#X obj 40 458 hip~ 20;
#X obj 40 437 hip~ 20;
#X obj 39 416 hip~ 20;
#X obj 38 297 *~;
#X obj 62 277 +~ 0.5;
#X obj 39 185 vcf~ 7000 2;
#X obj 74 161 line~;
#X obj 41 24 inlet;
#X obj 41 48 t b f f;
#X msg 63 120 \$1 30;
#X obj 39 230 *~ 50;
#X obj 124 185 + 1.5;
#X obj 124 164 * 3.5;
#X obj 40 503 outlet~;
#X obj 40 480 *~ 0.3;
#X text 96 387 blast excitor \, move through chaotic oscillator;
#X text 99 231 deliberately max out;
#X connect 0 0 19 0;
#X connect 1 0 16 0;
#X connect 2 0 17 0;
#X connect 3 0 24 0;
#X connect 4 0 1 0;
#X connect 5 0 1 1;
#X connect 5 0 18 0;
#X connect 6 0 4 0;
#X connect 7 0 5 0;
#X connect 7 0 5 1;
#X connect 8 0 12 0;
#X connect 8 0 26 0;
#X connect 9 0 23 0;
#X connect 10 0 8 0;
#X connect 10 1 8 1;
#X connect 11 0 7 2;
#X connect 12 0 11 0;
#X connect 13 0 9 0;
#X connect 14 0 28 0;
#X connect 15 0 14 0;
#X connect 16 0 15 0;
#X connect 17 0 6 0;
#X connect 18 0 17 1;
#X connect 19 0 3 0;
#X connect 20 0 19 1;
#X connect 21 0 22 0;
#X connect 22 0 7 0;
#X connect 22 1 13 0;
#X connect 22 2 10 0;
#X connect 23 0 20 0;
#X connect 24 0 2 0;
#X connect 25 0 19 2;
#X connect 26 0 25 0;
#X connect 28 0 27 0;
#X restore 80 233 pd rippernoise;
#X text 139 429 ajf2007;
#X obj 113 449 *~ 0.5;
#X obj 112 471 clip~ -1 1;
#X text 53 31 explosion modelling \, moving pressure wave (merci obiwannabe !);
#X floatatom 290 313 5 0 0 0 - - - 0;
#X obj 80 256 *~;
#X obj 111 496 outlet~;
#X obj 232 59 inlet;
#X obj 232 79 t b f;
#X obj 131 371 pressurewave;
#X obj 26 5 declare -path creb;
#X obj 259 102 s \$0-size;
#X obj 241 212 r \$0-size;
#X obj 212 343 r \$0-size;
#X obj 171 215 r \$0-size;
#X obj 145 255 r \$0-size;
#X obj 80 282 r \$0-size;
#X connect 1 0 5 0;
#X connect 3 0 4 1;
#X connect 3 0 25 0;
#X connect 4 0 7 0;
#X connect 5 0 14 0;
#X connect 5 1 25 1;
#X connect 5 2 9 0;
#X connect 6 0 17 0;
#X connect 7 0 6 0;
#X connect 8 0 6 1;
#X connect 9 0 3 1;
#X connect 10 0 11 0;
#X connect 10 1 11 1;
#X connect 11 0 12 0;
#X connect 12 0 9 1;
#X connect 12 0 20 0;
#X connect 13 0 4 0;
#X connect 14 0 15 0;
#X connect 14 1 13 1;
#X connect 15 0 21 0;
#X connect 17 0 18 0;
#X connect 18 0 22 0;
#X connect 21 0 3 0;
#X connect 23 0 24 0;
#X connect 24 0 1 0;
#X connect 24 1 27 0;
#X connect 25 0 8 0;
#X connect 28 0 10 0;
#X connect 29 0 25 4;
#X connect 29 0 25 3;
#X connect 31 0 21 1;
#X connect 32 0 13 0;
