#N canvas 735 420 450 300 10;
#X declare -path Fraise;
#X obj 27 86 inlet;
#X obj 102 86 inlet;
#X obj 27 108 spigot;
#X obj 102 110 spigot;
#X obj 159 86 f;
#X obj 159 65 route present;
#X obj 27 136 fruit/send \$1;
#X obj 159 45 fruit/receive \$1;
#X obj 222 7 declare -path Fraise;
#X obj 291 43 inlet;
#X connect 0 0 2 0;
#X connect 1 0 3 0;
#X connect 2 0 6 0;
#X connect 3 0 6 1;
#X connect 4 0 3 1;
#X connect 4 0 2 1;
#X connect 5 0 4 0;
#X connect 7 0 5 0;
#X connect 9 0 4 0;
