#N canvas 837 157 966 741 12;
#X obj 23 58 vsl 15 80 0 255 0 0 \$0-lr-snd \$0-lr-rcv empty 0 -9 0 12 #ff0400 #000000 #000000 0 1;
#X obj 40 58 vsl 15 80 0 255 0 0 \$0-lg-snd \$0-lg-rcv empty 0 -9 0 12 #00ff04 #000000 #000000 0 1;
#X obj 57 58 vsl 15 80 0 255 0 0 \$0-lb-snd \$0-lb-rcv empty 0 -9 0 12 #0400ff #000000 #000000 0 1;
#X obj 74 58 vsl 15 80 0 255 0 0 \$0-lw-snd \$0-lw-rcv empty 0 -9 0 12 #ffffff #000000 #000000 0 1;
#N canvas 735 420 450 300 col 0;
#X obj 49 39 inlet;
#X obj 101 39 inlet;
#X obj 150 38 inlet;
#X obj 202 38 inlet;
#X obj 49 124 t b f, f 6;
#X obj 49 194 f, f 6;
#X obj 49 219 pack f f f f, f 32;
#X obj 101 123 t b f;
#X obj 150 123 t b f;
#X obj 202 122 t b f;
#X obj 49 169 del 1;
#X obj 49 244 outlet;
#X obj 49 64 i;
#X obj 49 89 change;
#X obj 101 64 i;
#X obj 101 89 change;
#X obj 150 65 i;
#X obj 150 90 change;
#X obj 202 65 i;
#X obj 202 90 change;
#X connect 0 0 12 0;
#X connect 1 0 14 0;
#X connect 2 0 16 0;
#X connect 3 0 18 0;
#X connect 4 0 10 0;
#X connect 4 1 5 1;
#X connect 5 0 6 0;
#X connect 6 0 11 0;
#X connect 7 0 10 0;
#X connect 7 1 6 1;
#X connect 8 0 10 0;
#X connect 8 1 6 2;
#X connect 9 0 10 0;
#X connect 9 1 6 3;
#X connect 10 0 5 0;
#X connect 12 0 13 0;
#X connect 13 0 4 0;
#X connect 14 0 15 0;
#X connect 15 0 7 0;
#X connect 16 0 17 0;
#X connect 17 0 8 0;
#X connect 18 0 19 0;
#X connect 19 0 9 0;
#X restore 238 128 pd col;
#X f 9;
#X obj 399 149 t b a;
#X obj 238 155 t b a;
#X obj 238 236 list prepend 2;
#X obj 119 58 vsl 15 80 0 255 0 0 \$0-hr-snd \$0-hr-rcv empty 0 -9 0 12 #ff0400 #000000 #000000 0 1;
#X obj 136 58 vsl 15 80 0 255 0 0 \$0-hg-snd \$0-hg-rcv empty 0 -9 0 12 #00ff04 #000000 #000000 0 1;
#X obj 153 58 vsl 15 80 0 255 0 0 \$0-hb-snd \$0-hb-rcv empty 0 -9 0 12 #0400ff #000000 #000000 0 1;
#X obj 170 58 vsl 15 80 0 255 0 0 \$0-hw-snd \$0-hw-rcv empty 0 -9 0 12 #ffffff #000000 #000000 0 1;
#X obj 238 30 r \$0-lr-snd;
#X obj 258 55 r \$0-lg-snd;
#X obj 278 79 r \$0-lb-snd;
#X obj 298 102 r \$0-lw-snd;
#N canvas 735 420 450 300 col 0;
#X obj 49 39 inlet;
#X obj 101 39 inlet;
#X obj 150 38 inlet;
#X obj 202 38 inlet;
#X obj 49 124 t b f, f 6;
#X obj 49 194 f, f 6;
#X obj 49 219 pack f f f f, f 32;
#X obj 101 123 t b f;
#X obj 150 123 t b f;
#X obj 202 122 t b f;
#X obj 49 169 del 1;
#X obj 49 244 outlet;
#X obj 49 64 i;
#X obj 49 89 change;
#X obj 101 64 i;
#X obj 101 89 change;
#X obj 150 65 i;
#X obj 150 90 change;
#X obj 202 65 i;
#X obj 202 90 change;
#X connect 0 0 12 0;
#X connect 1 0 14 0;
#X connect 2 0 16 0;
#X connect 3 0 18 0;
#X connect 4 0 10 0;
#X connect 4 1 5 1;
#X connect 5 0 6 0;
#X connect 6 0 11 0;
#X connect 7 0 10 0;
#X connect 7 1 6 1;
#X connect 8 0 10 0;
#X connect 8 1 6 2;
#X connect 9 0 10 0;
#X connect 9 1 6 3;
#X connect 10 0 5 0;
#X connect 12 0 13 0;
#X connect 13 0 4 0;
#X connect 14 0 15 0;
#X connect 15 0 7 0;
#X connect 16 0 17 0;
#X connect 17 0 8 0;
#X connect 18 0 19 0;
#X connect 19 0 9 0;
#X restore 399 126 pd col;
#X f 9;
#X obj 399 28 r \$0-hr-snd;
#X obj 419 53 r \$0-hg-snd;
#X obj 439 76 r \$0-hb-snd;
#X obj 459 99 r \$0-hw-snd;
#X listbox 749 458 28 0 0 0 - - - 0;
#X obj 238 182 list 0 0 0 0;
#X obj 238 211 list append 0 0 0 0, f 28;
#X obj 26 145 hsl 80 20 0 255 0 0 \$0-speed_up-snd \$0-speed_up-rcv speed_up 5 10 0 12 #fcfcfc #00ff04 #000000 0 1;
#X obj 26 168 hsl 80 20 0 255 0 0 \$0-speed_down-snd \$0-speed_down-rcv speed_down 5 10 0 12 #fcfcfc #00ff04 #000000 0 1;
#X obj 114 145 hsl 80 20 0 255 0 0 \$0-time_high-snd \$0-time_high-rcv time_high 5 10 0 12 #fcfcfc #ff8300 #000000 0 1;
#X obj 114 168 hsl 80 20 0 255 0 0 \$0-time_low-snd \$0-time_low-rcv time_low 5 10 0 12 #ffffff #ff8300 #000000 0 1;
#X obj 26 192 hsl 80 20 0 100 0 0 \$0-params_rnd-snd \$0-params_rnd-rcv params_rnd 5 10 0 12 #ffffff #9c00ff #000000 0 1;
#X obj 114 192 hsl 80 20 0 100 0 0 \$0-col_smooth-snd \$0-col_smooth-rcv col_smooth 5 10 0 12 #ffffff #0400ff #000000 0 1;
#X obj 26 218 hsl 80 20 0 255 0 0 \$0-intens-snd \$0-intens-rcv intens 5 10 0 12 #ffffff #ff0400 #000000 0 1;
#X obj 114 217 hsl 80 20 0 255 0 0 \$0-intens_min-snd \$0-intens_min-rcv intens_min 5 10 0 12 #ffffff #ff0400 #000000 0 1;
#X obj 114 241 hsl 80 20 0 255 0 0 \$0-inten_speed-snd \$0-inten_speed-rcv inten_speed 2 10 0 12 #ffffff #ff0400 #000000 0 1;
#X obj 26 266 hsl 80 20 0 255 0 0 \$0-flash_time-snd \$0-flash_time-rcv flash_time 3 10 0 12 #faff00 #ff0400 #000000 0 1;
#X obj 26 289 hsl 80 20 0 255 0 0 \$0-flash_delay-snd \$0-flash_delay-rcv flash_delay 3 10 0 12 #faff00 #ff0400 #000000 0 1;
#X obj 116 288 bng 20 250 50 0 \$0-flash \$0-flash flash 0 -10 0 12 #faff00 #ff0400 #000000;
#X text 117 37 high color;
#X text 23 37 low color;
#X obj 22 334 apf \$1 \$2-lr \$0-lr;
#X obj 22 359 apf \$1 \$2-lg \$0-lg;
#X obj 22 382 apf \$1 \$2-lb \$0-lb;
#X obj 22 408 apf \$1 \$2-lw \$0-lw;
#X obj 23 434 apf \$1 \$2-hr \$0-hr;
#X obj 23 459 apf \$1 \$2-hg \$0-hg;
#X obj 23 482 apf \$1 \$2-hb \$0-hb;
#X obj 23 505 apf \$1 \$2-hw \$0-hw;
#X obj 164 337 apf \$1 \$2-speed_up \$0-speed_up;
#X obj 164 361 apf \$1 \$2-speed_down \$0-speed_down;
#X obj 164 385 apf \$1 \$2-time_high \$0-time_high;
#X obj 164 408 apf \$1 \$2-time_low \$0-time_low;
#X obj 164 430 apf \$1 \$2-params_rnd \$0-params_rnd;
#X obj 164 454 apf \$1 \$2-col_smooth \$0-col_smooth;
#X obj 164 478 apf \$1 \$2-intens \$0-intens;
#X obj 164 501 apf \$1 \$2-intens_min \$0-intens_min;
#X obj 164 523 apf \$1 \$2-inten_speed \$0-inten_speed;
#X obj 59 549 apf \$1 \$2-flash_time \$0-flash_time;
#X obj 59 573 apf \$1 \$2-flash_delay \$0-flash_delay;
#X obj 613 54 r \$0-speed_down-snd;
#X obj 594 26 r \$0-speed_up-snd;
#X obj 652 105 r \$0-time_high-snd;
#X obj 633 80 r \$0-time_low-snd;
#X obj 672 129 r \$0-params_rnd-snd;
#X obj 691 154 r \$0-col_smooth-snd;
#X obj 711 178 r \$0-inten_speed-snd;
#X obj 594 204 bytes 7, f 20;
#X obj 594 230 list prepend 1;
#X obj 621 570 bytes 2, f 20;
#X obj 640 543 r \$0-flash_time-snd;
#X obj 621 515 r \$0-flash_delay-snd;
#X obj 595 401 bytes 2, f 20;
#X obj 595 286 r \$0-intens-snd;
#X obj 614 374 r \$0-intens_min-snd;
#X obj 595 427 list prepend 0;
#X obj 596 596 list;
#X obj 596 489 r \$0-flash;
#X obj 596 620 list prepend 10;
#X obj 501 654 outlet;
#X obj 595 319 * 1;
#X obj 624 318 t b f;
#X obj 669 318 r main-master;
#X obj 126 627 r \$1-\$2-flash;
#X obj 126 652 s \$0-flash;
#N canvas 117 134 1139 315 \$0-presets 0;
#X obj 21 116 s \$0-lr-rcv;
#X obj 41 141 s \$0-lg-rcv;
#X obj 61 165 s \$0-lb-rcv;
#X obj 81 188 s \$0-lw-rcv;
#X obj 182 114 s \$0-hr-rcv;
#X obj 202 139 s \$0-hg-rcv;
#X obj 222 162 s \$0-hb-rcv;
#X obj 242 185 s \$0-hw-rcv;
#X obj 23 85 unpack f f f f f f f f, f 38;
#X msg 22 55 0 0 0 255 0 0 0 255;
#X msg 171 55 161 0 0 0 255 220 0 0;
#X msg 331 56 0 0 255 0 0 0 32 255;
#X text 87 30 blanc;
#X text 237 33 feu;
#X text 369 37 froid;
#X obj 514 121 s \$0-speed_up-rcv;
#X obj 533 149 s \$0-speed_down-rcv;
#X obj 553 175 s \$0-time_low-rcv;
#X obj 571 198 s \$0-time_high-rcv;
#X obj 592 224 s \$0-params_rnd-rcv;
#X obj 611 249 s \$0-col_smooth-rcv;
#X obj 631 273 s \$0-inten_speed-rcv;
#X obj 514 93 unpack f f f f f f f;
#X msg 514 58 58 110 0 0 65 17 74;
#X msg 665 58 6 6 0 0 56 100 16;
#X text 538 35 feu-rapide;
#X text 682 37 froid-lent;
#X obj 833 194 s \$0-intens-rcv;
#X obj 900 167 s \$0-intens_min-rcv;
#X obj 833 138 unpack f f;
#X msg 833 63 255 0;
#X msg 1010 62 255 255;
#X text 1012 38 full;
#X text 1079 38 noir;
#X msg 1077 62 0 0;
#X msg 904 62 255 160;
#X text 161 4 COLORS;
#X text 621 7 SETTINGS;
#X text 912 7 INTENSITY;
#X text 821 28 variable+ (feu), f 9;
#X text 907 29 variable- (froid), f 9;
#X connect 8 0 0 0;
#X connect 8 1 1 0;
#X connect 8 2 2 0;
#X connect 8 3 3 0;
#X connect 8 4 4 0;
#X connect 8 5 5 0;
#X connect 8 6 6 0;
#X connect 8 7 7 0;
#X connect 9 0 8 0;
#X connect 10 0 8 0;
#X connect 11 0 8 0;
#X connect 22 0 15 0;
#X connect 22 1 16 0;
#X connect 22 2 17 0;
#X connect 22 3 18 0;
#X connect 22 4 19 0;
#X connect 22 5 20 0;
#X connect 22 6 21 0;
#X connect 23 0 22 0;
#X connect 24 0 22 0;
#X connect 29 0 27 0;
#X connect 29 1 28 0;
#X connect 30 0 29 0;
#X connect 31 0 29 0;
#X connect 34 0 29 0;
#X connect 35 0 29 0;
#X restore 306 616 pd \$0-presets;
#X obj 159 288 bng 20 250 50 0 \$0-show_presets \$0-show_presets presets 0 -10 0 10 #c6ffc7 #bbbbbb #000000;
#X obj 307 647 r \$0-show_presets;
#X msg 307 672 vis 1;
#X obj 307 697 s pd-\$0-presets;
#X connect 4 0 6 0;
#X connect 5 0 22 0;
#X connect 5 1 23 1;
#X connect 6 0 22 0;
#X connect 6 1 22 1;
#X connect 7 0 76 0;
#X connect 12 0 4 0;
#X connect 13 0 4 1;
#X connect 14 0 4 2;
#X connect 15 0 4 3;
#X connect 16 0 5 0;
#X connect 17 0 16 0;
#X connect 18 0 16 1;
#X connect 19 0 16 2;
#X connect 20 0 16 3;
#X connect 22 0 23 0;
#X connect 23 0 7 0;
#X connect 57 0 64 1;
#X connect 58 0 64 0;
#X connect 59 0 64 3;
#X connect 60 0 64 2;
#X connect 61 0 64 4;
#X connect 62 0 64 5;
#X connect 63 0 64 6;
#X connect 64 0 65 0;
#X connect 65 0 76 0;
#X connect 66 0 73 1;
#X connect 67 0 66 1;
#X connect 68 0 66 0;
#X connect 69 0 72 0;
#X connect 70 0 77 0;
#X connect 71 0 69 1;
#X connect 72 0 76 0;
#X connect 72 0 21 0;
#X connect 73 0 75 0;
#X connect 74 0 73 0;
#X connect 75 0 76 0;
#X connect 77 0 69 0;
#X connect 78 0 77 0;
#X connect 78 1 77 1;
#X connect 79 0 78 0;
#X connect 80 0 81 0;
#X connect 84 0 85 0;
#X connect 85 0 86 0;
#X coords 0 -1 1 1 180 294 1 20 20;
