#N canvas 474 487 852 482 12;
#X obj 110 256 pdcontrol;
#X listbox 110 281 20 0 0 0 - - - 0;
#X msg 110 230 args;
#X obj 152 55 loadbang;
#X obj 29 131 route present;
#X obj 29 156 sel 1;
#X obj 29 315 list;
#X obj 29 356 list prepend 101 1;
#X text 53 336 def group;
#X obj 110 304 t b a;
#X obj 74 156 r RELOAD_ALL;
#X obj 238 18 inlet;
#X text 291 318 group comm;
#X obj 238 342 list prepend 101 2 \$1;
#X obj 29 181 b;
#X obj 29 206 random 100;
#X obj 29 254 del;
#X obj 29 230 + 10;
#X listbox 308 401 28 0 0 0 - - - 0;
#X floatatom 323 210 5 0 255 2 intensity - - 0;
#X msg 321 246 0 \$1 50;
#X obj 12 29 bng 20 250 50 0 empty empty print_chans 23 10 0 12 #fcfcfc #000000 #000000;
#X obj 514 107 list split 1;
#X obj 517 151 list;
#X obj 517 209 list split 1;
#X obj 517 180 t a a, f 15;
#X obj 619 209 list split 1;
#X msg 619 328 100 \$1 200;
#X text 639 308 get chan;
#X obj 193 194 bng 20 250 50 0 empty empty empty 0 -10 0 12 #fcfcfc #000000 #000000;
#X obj 29 107 fruit/receive dmxseq;
#X obj 145 401 v dmxseq-present;
#X obj 152 80 t b b;
#X obj 29 427 fruitsend3 dmxseq;
#X connect 0 0 1 0;
#X connect 1 0 9 0;
#X connect 2 0 0 0;
#X connect 3 0 32 0;
#X connect 4 0 5 0;
#X connect 4 0 31 0;
#X connect 5 0 14 0;
#X connect 6 0 7 0;
#X connect 7 0 33 0;
#X connect 9 0 6 0;
#X connect 9 1 6 1;
#X connect 9 1 22 0;
#X connect 10 0 14 0;
#X connect 11 0 13 0;
#X connect 13 0 33 0;
#X connect 14 0 15 0;
#X connect 14 0 29 0;
#X connect 15 0 17 0;
#X connect 16 0 6 0;
#X connect 17 0 16 0;
#X connect 19 0 20 0;
#X connect 20 0 13 0;
#X connect 21 0 23 0;
#X connect 22 1 23 1;
#X connect 23 0 25 0;
#X connect 24 1 25 0;
#X connect 25 0 24 0;
#X connect 25 1 26 0;
#X connect 26 0 27 0;
#X connect 27 0 33 0;
#X connect 30 0 4 0;
#X connect 31 0 33 2;
#X connect 32 0 2 0;
#X connect 32 1 31 0;
#X coords 0 -1 1 1 85 40 1 10 10;
