#N canvas 84 62 816 621 10;
#N canvas 194 529 378 404 fadeToScene 0;
#X obj 37 321 list prepend _all_;
#X obj 37 343 list trim;
#X obj 40 230 hsl 128 15 0 1 0 0 empty empty empty -2 -8 0 10 #fcfcfc #000000 #000000 0 1;
#X msg 37 250 pos \$1;
#X obj 37 154 list append;
#X obj 37 11 inlet;
#X obj 64 66 unpack f f, f 11;
#X obj 37 375 s \$1-pattern-snd;
#X msg 37 178 0 \, 1 \$1;
#X msg 143 184 store \$2 \, B \$1 \, A \$2;
#X obj 194 31 inlet;
#X obj 37 37 t b a;
#X obj 37 207 line;
#X obj 143 155 pack f 63;
#X connect 0 0 1 0;
#X connect 1 0 7 0;
#X connect 2 0 3 0;
#X connect 3 0 0 0;
#X connect 4 0 8 0;
#X connect 5 0 11 0;
#X connect 6 0 13 0;
#X connect 6 1 4 1;
#X connect 8 0 12 0;
#X connect 9 0 0 0;
#X connect 10 0 13 1;
#X connect 11 0 4 0;
#X connect 11 1 6 0;
#X connect 12 0 2 0;
#X connect 13 0 9 0;
#X restore 205 302 pd fadeToScene;
#X obj 206 280 pack f 2000;
#X obj 326 108 hsl 128 15 0 10000 0 0 \$1-fadeToScene-time \$1-fadeToScene-time fadeTime:0_sec -2 -8 0 10 #fcfcfc #000000 #000000 0 1;
#X obj 470 171 / 100;
#X obj 470 193 i;
#X obj 470 215 / 10;
#X obj 316 193 route float;
#X floatatom 502 226 5 0 0 0 - - - 0;
#X obj 470 116 route float;
#X msg 470 248 label fadeTime:\$1_sec;
#X obj 470 80 r \$1-fadeToScene-time;
#X obj 470 273 s \$1-fadeToScene-time;
#X obj 316 171 r \$1-fadeToScene-time;
#X obj 206 166 r \$1-fadeToScene;
#X obj 133 56 hradio 8 1 0 64 \$1-fadeToScene \$1-fadeToScene empty 0 -8 0 10 #fcfcfc #000000 #000000 0;
#X obj 74 207 s \$1-fadeToScene;
#X obj 74 76 r \$1-fade-patternButton-snd;
#X obj 328 248 r \$1-setap-snd;
#X obj 328 270 route _all_;
#X obj 328 292 route _nbpattern_;
#X floatatom 357 316 5 0 0 0 - - - 0;
#X obj 328 314 - 1;
#X msg 24 347 \$1 load \$2;
#X obj 74 111 r \$1-fade-pattern-snd;
#X floatatom 59 185 5 0 0 0 - - - 0;
#X floatatom 109 182 5 0 0 0 - - - 0;
#X obj 74 155 route load store;
#X obj 74 133 route _all_;
#X obj 63 280 s \$1-pattern-snd;
#X msg 63 258 _all_ store \$1;
#X obj 137 479 s \$1-fadeTime-rcv;
#X obj 250 478 s \$1-fadeToScene-time;
#X obj 237 429 pow 2;
#X obj 237 451 * 10000;
#X obj 210 407 r global-fadeTime-snd;
#X obj 470 145 speedlim 100;
#X obj 483 339 r closeAllSettings;
#X msg 483 361 vis 0;
#X obj 483 383 s pd-\$1-settings;
#X msg 438 360 vis 1;
#X obj 460 468 route _all_;
#X obj 460 490 route _nbpattern_;
#X obj 460 446 r \$1-fade-setap-snd;
#X floatatom 423 493 5 0 0 0 - - - 0;
#X obj 460 532 s \$1-setap-snd;
#X msg 460 512 _all_ _nbpattern_ \$1;
#X obj 269 248 f;
#X obj 206 190 t b a;
#X obj 354 343 loadbang;
#X msg 354 366 64;
#X obj 426 533 bng 18 250 50 0 empty empty empty 0 -9 0 10 #fcfcfc #000000 #000000;
#X obj 629 455 route _all_;
#X obj 629 476 route _loaded_ _saved_;
#X obj 629 435 r \$1-setap-snd;
#X obj 629 499 b;
#X msg 629 522 64;
#X connect 1 0 0 0;
#X connect 3 0 4 0;
#X connect 4 0 5 0;
#X connect 5 0 7 0;
#X connect 5 0 9 0;
#X connect 6 0 46 0;
#X connect 8 0 35 0;
#X connect 9 0 11 0;
#X connect 10 0 8 0;
#X connect 12 0 6 0;
#X connect 13 0 47 0;
#X connect 17 0 18 0;
#X connect 18 0 19 0;
#X connect 19 0 20 0;
#X connect 19 0 21 0;
#X connect 21 0 0 1;
#X connect 23 0 27 0;
#X connect 26 0 24 0;
#X connect 26 0 15 0;
#X connect 26 1 25 0;
#X connect 26 1 29 0;
#X connect 27 0 26 0;
#X connect 29 0 28 0;
#X connect 32 0 33 0;
#X connect 33 0 31 0;
#X connect 34 0 32 0;
#X connect 34 0 30 0;
#X connect 35 0 3 0;
#X connect 36 0 37 0;
#X connect 37 0 38 0;
#X connect 39 0 38 0;
#X connect 40 0 41 0;
#X connect 41 0 43 0;
#X connect 41 0 45 0;
#X connect 42 0 40 0;
#X connect 43 0 50 0;
#X connect 45 0 44 0;
#X connect 46 0 1 1;
#X connect 47 0 46 0;
#X connect 47 1 1 0;
#X connect 48 0 49 0;
#X connect 49 0 21 0;
#X connect 51 0 52 0;
#X connect 52 0 54 0;
#X connect 52 1 54 0;
#X connect 53 0 51 0;
#X connect 54 0 55 0;
#X connect 55 0 45 0;
