#N canvas 670 336 741 628 12;
#X obj 62 107 apmaster \$1;
#X obj 62 160 bng 20 250 50 0 empty empty empty 0 -10 0 12 #c6ffc7 #000000 #000000;
#X obj 269 160 bng 20 250 50 0 empty empty empty 0 -10 0 12 #ff0400 #000000 #000000;
#X obj 62 185 apmasterfile \$1 presets/\$1.txt;
#X obj 269 133 r \$1-save;
#X obj 62 133 r \$1-load;
#X obj 64 226 r RELOAD_ALL;
#X obj 64 255 s \$1-load;
#X obj 164 227 loadbang;
#X obj 63 309 patternFade \$1;
#X obj 285 444 r main-fadeToScene-time;
#X obj 285 516 s \$1-fadeToScene-time;
#X obj 69 433 list split 1;
#X obj 109 489 route store;
#X obj 109 461 list trim;
#X obj 109 515 sel 63;
#X obj 148 540 b;
#X obj 148 565 del 100;
#X obj 148 590 s \$1-save;
#X obj 10 10 16patterns_notitle \$1-fade;
#X obj 409 73 r \$1-fade-pattern-snd;
#X obj 409 117 route load store;
#X obj 409 95 route _all_;
#X obj 409 293 s \$1-fade-pattern-snd;
#X msg 409 267 _all_ load \$1;
#X obj 409 240 hradio 20 1 0 16 empty empty empty 0 -10 0 12 #fcfcfc #000000 #000000 0;
#X obj 69 408 r \$1-fade-pattern-snd;
#X floatatom 409 142 5 0 0 0 - - - 0;
#X obj 409 190 apf MASTER \$1-pattern \$0__ \$2;
#X obj 285 480 spigot 1;
#X obj 458 367 loadbang;
#X obj 458 392 symbol \$1;
#X obj 458 417 sel MASTER;
#X msg 458 442 0;
#X obj 614 72 r \$1-pattern;
#X connect 1 0 3 0;
#X connect 2 0 3 1;
#X connect 4 0 2 0;
#X connect 5 0 1 0;
#X connect 6 0 7 0;
#X connect 8 0 7 0;
#X connect 10 0 29 0;
#X connect 12 1 14 0;
#X connect 13 0 15 0;
#X connect 14 0 13 0;
#X connect 15 1 16 0;
#X connect 16 0 17 0;
#X connect 17 0 18 0;
#X connect 20 0 22 0;
#X connect 21 0 27 0;
#X connect 22 0 21 0;
#X connect 24 0 23 0;
#X connect 25 0 24 0;
#X connect 26 0 12 0;
#X connect 27 0 28 0;
#X connect 28 0 25 0;
#X connect 29 0 11 0;
#X connect 30 0 31 0;
#X connect 31 0 32 0;
#X connect 32 0 33 0;
#X connect 33 0 29 1;
#X connect 33 0 11 0;
#X connect 34 0 25 0;
#X coords 0 -1 1 1 230 76 1 10 10;
