#N canvas 730 319 599 462 10;
#X obj 135 372 *~;
#X obj 73 162 sig~ 1;
#X obj 73 187 -~;
#X obj 74 235 +~ 0;
#X obj 74 292 *~;
#X obj 73 340 lop~ 10000;
#X obj 73 208 *~ 500;
#X obj 74 314 hip~ 10;
#X obj 143 110 ead~ 0 3;
#X obj 126 212 r~ \$0-feedback;
#X obj 127 236 delwrite~ \$0-variabledelay 10000;
#X obj 75 260 vd~ \$0-variabledelay;
#X obj 134 393 s~ \$0-feedback;
#X obj 144 134 -~ 0.0001;
#X obj 145 85 del 3;
#X obj 206 87 * 8000;
#X obj 45 112 inlet~ sound;
#X obj 174 40 inlet delay;
#X obj 207 63 inlet sweep;
#X obj 140 16 inlet trigger;
#X obj 311 63 inlet feedback;
#X obj 311 96 * 2;
#X obj 74 424 outlet~;
#X text 175 157 <--- critical point where crosses speed of sound in
the medium \, everything compressed into the dalay time is suddenly
expanded again very fast.;
#X connect 0 0 12 0;
#X connect 1 0 2 0;
#X connect 2 0 6 0;
#X connect 3 0 11 0;
#X connect 4 0 7 0;
#X connect 5 0 0 0;
#X connect 5 0 22 0;
#X connect 6 0 3 0;
#X connect 7 0 5 0;
#X connect 8 0 13 0;
#X connect 9 0 10 0;
#X connect 11 0 4 0;
#X connect 13 0 2 1;
#X connect 13 0 4 1;
#X connect 14 0 8 0;
#X connect 15 0 8 2;
#X connect 16 0 5 0;
#X connect 17 0 14 1;
#X connect 18 0 15 0;
#X connect 19 0 14 0;
#X connect 20 0 21 0;
#X connect 21 0 0 1;
